/* XPM */
static char *_befae74dd4d4654c4a06f09e844ae1d[] = {
/* columns rows colors chars-per-pixel */
"64 64 234 2 ",
"   c #060100",
".  c #0C0200",
"X  c #0E0800",
"o  c #110300",
"O  c #1E0401",
"+  c #130900",
"@  c #1C0901",
"#  c #12150E",
"$  c #4F2004",
"%  c #452C0F",
"&  c #532705",
"*  c #542E0E",
"=  c #5B2C0B",
"-  c #5A320F",
";  c #522F13",
":  c #592F11",
">  c #563212",
",  c #5B3412",
"<  c #563916",
"1  c #5D3A16",
"2  c #53371A",
"3  c #5A361A",
"4  c #563B1B",
"5  c #5C3C1C",
"6  c #622F07",
"7  c #62320E",
"8  c #68360F",
"9  c #633614",
"0  c #683717",
"q  c #643A15",
"w  c #6B3A15",
"e  c #683718",
"r  c #633C1B",
"t  c #6C3C1A",
"y  c #713E1D",
"u  c #533B27",
"i  c #5A3F21",
"p  c #553D29",
"a  c #5A3E2B",
"s  c #5A3F33",
"d  c #643F21",
"f  c #703F20",
"g  c #56411D",
"h  c #5D401F",
"j  c #64411D",
"k  c #6C421D",
"l  c #72421D",
"z  c #7B461E",
"x  c #5D4223",
"c  c #55402C",
"v  c #524132",
"b  c #5C4431",
"n  c #5F4832",
"m  c #644323",
"M  c #6B4523",
"N  c #654826",
"B  c #6D4826",
"V  c #60472E",
"C  c #6B462B",
"Z  c #65492B",
"A  c #6D4C2C",
"S  c #744523",
"D  c #7A4522",
"F  c #744A25",
"G  c #7B4A25",
"H  c #7A4628",
"J  c #744C2A",
"K  c #7B4D2A",
"L  c #6D502D",
"P  c #74502D",
"I  c #7D522C",
"U  c #634432",
"Y  c #634C37",
"T  c #6D4D32",
"R  c #66453A",
"E  c #6A4738",
"W  c #674D3A",
"Q  c #6B4D3B",
"!  c #734E32",
"~  c #7F4F31",
"^  c #7B4F3A",
"/  c #6D5135",
"(  c #6C513D",
")  c #745234",
"_  c #7C5432",
"`  c #7F5934",
"'  c #75543B",
"]  c #7A523B",
"[  c #77593F",
"{  c #7C5A3B",
"}  c #544C40",
"|  c #6D5542",
" . c #745343",
".. c #755C42",
"X. c #7B5A45",
"o. c #7E5756",
"O. c #7C6340",
"+. c #7A6556",
"@. c #83481D",
"#. c #804524",
"$. c #824C26",
"%. c #8B4E25",
"&. c #824D2A",
"*. c #894F2B",
"=. c #855126",
"-. c #8A5227",
";. c #84522D",
":. c #8A542D",
">. c #8C582F",
",. c #92542D",
"<. c #955A2E",
"1. c #834F30",
"2. c #845532",
"3. c #8B5532",
"4. c #845A34",
"5. c #8C5A34",
"6. c #81563B",
"7. c #8C573B",
"8. c #845B3B",
"9. c #8C5D3A",
"0. c #925633",
"q. c #995731",
"w. c #935B35",
"e. c #9B5C35",
"r. c #91573A",
"t. c #935D39",
"y. c #9A5E3B",
"u. c #A05D33",
"i. c #A35F3A",
"p. c #87602C",
"a. c #856037",
"s. c #8D6235",
"d. c #86613B",
"f. c #8D623C",
"g. c #956036",
"h. c #9A6036",
"j. c #94623C",
"k. c #9B633D",
"l. c #93683F",
"z. c #9D693E",
"x. c #A16237",
"c. c #A2633B",
"v. c #AE663E",
"b. c #A4693E",
"n. c #A96A3F",
"m. c #845540",
"M. c #855C43",
"N. c #8C5D41",
"B. c #8E5C4A",
"V. c #935E42",
"C. c #835858",
"Z. c #866444",
"A. c #8C6343",
"S. c #8B6945",
"D. c #85634A",
"F. c #8C6649",
"G. c #8D6A4B",
"H. c #946441",
"J. c #9C6541",
"K. c #956A44",
"L. c #9C6A44",
"P. c #93644A",
"I. c #9A674A",
"U. c #946B4B",
"Y. c #9C6D4A",
"T. c #8E724D",
"R. c #947140",
"E. c #9B7147",
"W. c #96704D",
"Q. c #9C714B",
"!. c #856651",
"~. c #876A52",
"^. c #8C6E54",
"/. c #936751",
"(. c #986154",
"). c #946D51",
"_. c #9D6C52",
"`. c #957253",
"'. c #9B7353",
"]. c #9F7951",
"[. c #9C7559",
"{. c #9E795A",
"}. c #A26642",
"|. c #A36A45",
" X c #AA6B44",
".X c #A36648",
"XX c #A56C4A",
"oX c #AA6D4A",
"OX c #B16B44",
"+X c #B26D48",
"@X c #A77045",
"#X c #AE7245",
"$X c #A4724D",
"%X c #AB724C",
"&X c #A6784F",
"*X c #B47247",
"=X c #B3734C",
"-X c #BC754C",
";X c #B2794F",
":X c #BA794D",
">X c #A26C51",
",X c #A47453",
"<X c #AC7551",
"1X c #A57B54",
"2X c #AC7A54",
"3X c #A2765A",
"4X c #A8765A",
"5X c #A47B5C",
"6X c #AA7D5C",
"7X c #B37452",
"8X c #BA7551",
"9X c #B37A55",
"0X c #B87D55",
"qX c #B47658",
"wX c #B37C5A",
"eX c #B97C59",
"rX c #8E6F61",
"tX c #8C7061",
"yX c #927364",
"uX c #9C7D6D",
"iX c #9D7E70",
"pX c #A37660",
"aX c #A57D60",
"sX c #AB7E62",
"dX c #A17E6A",
"fX c #AC7F69",
"gX c #B47E62",
"hX c #AE8359",
"jX c #B3805A",
"kX c #AC8365",
"lX c #A6836A",
"zX c #A98368",
"xX c #AF896A",
"cX c #BC866A",
/* pixels */
"+.tXtXrXyXiXiXiXuXdXfXzX5X[.W.U.U.F.A.Z.).5XaX[.).)._.).[.`.M.] '.'.3X[.3X[.[.[.T.G.G.).[.[.'.).F.B.P./.Y.'.[.5X5X3X[.lXyX+.} # ",
"D.m.^ M.(.pXfXsX3X_.Y.$XL.t.:.&.D D z $.f.|.@Xh.3.>.t.j.L.k.D w k.y.J.J.J.J.t.2.;.G I r.t.t.3.&.D G $.>.w.j.k.J.z.z.l.9.) ( v   ",
"(.V.r.V..XqXeXqXoXi.y.t.>.=.G G D $.$.>.b.;X@Xy.<.,.w.t.l..XD w J.0.y.k.j.9.2.G S G F 5.3.:.&.G z $.%.>.<.g.h.z.h.h.e.w.2.M.( . ",
"_..X.X+XOX+XOXi.q.q.w.1.I F G G D G :.J.oX<X|.y.w.y.w.9.8.H.H e I.I 2.t.5.;.G H S F I 5.4.;.G G G 1.:.w.t.t.j.g.w.5.>.,.y.P.X.o ",
"gXeX-XOXv.i.q.,.%.%.*.K L P ! J C K 7._.4X4XI.V.V.N.9.G.' M.d 3 ).! M.M.] ! B J ! ' { M.8.{ _ ! J ~ 4.F.A.V.9.N.N.7.r.i.}.I.m.o ",
"cX7X Xx.u.q.-.*.$.G D M C ! ] _ _ M./.,X4X>XP.H.J.P.M.S./ ) 3 ; F.J Z.7._ ! J ^ 8.A.S.8.N.A.M.P ! _ 9.U.P.A.A.V.9.N.r.+X7X>XX.. ",
"gX.Xk.e.<.:.K G H J ! F K 2.4.5.y.J.XX%XXX}.}.J.V.y.3._ S q 7 9 P.1.2.4.&.G K 5.f.l.j.9.9.9.3.G G ;.t.J.t.z.J.0.0.}.}.8X.XN.U . ",
"6XK.t.:.;.I K A ! T J G $.:.,.e.x.}.+X X X}.}.c.e.,.&.D k k 8 7 w.*.<.3.-.*.>.g.z.g.w.>.>.w.:.*.$.,.0.e.0.u.i.e.x.+X7XoXi.m.s . ",
"{.f.4.! ! J L T T Y L ;.,.,.e.c. XOX=Xi.c.i.c.y.<.$.z 8 w l 8 6 w.:.g.e.<.e.g.h.h.<.p.=.:.:.:.-.%.-.,.e.q.e.i.i.OX-X8Xk.r.^ s   ",
"`.8._ J L L L T / / P >.<.h.n.*X=X=X+Xy.e.y.w.5.;.z q q k l q 7 g.>.z.z.h.h.<.-.-.=.=.=.;.;.-.$.*.-.,.e.,.u.c.c.OX-X+Xr.6.^ b   ",
"^.' ! J L J A L J _ _ s.h.@X;X9X9XXX.Xt.7.2.~ ! C m h h j M , 1 U.9.f.H.f.4.K G F G G ;.I ;.I G K 3.t.r.0.y.}.i..X+Xy.0.2.' b   ",
"~./ A J J B F J _ 4.9.g.z.&XjX9X%XJ.t.3.2.J C m x g g x N N 1 5 W.A.H.8.` G S S G I 4.4.4.I K F 1.4.j.5.7.y.y.J..X Xy.>.2.' b . ",
"!.T A J J K I :.g.h.b.x.@X;X;X#Xz.0.;.1.K J m 4 4 g h N L ) m j W.8.4.I G G G ;.p.4.5.a.;.P F I 4.f.j.t.y.}.y.y.}. Xw.,.:.` n . ",
"D.J S J K ;.3.t.x.n.n.b.#X#X#Xb.w.=.K F J M j 1 4 g h L { A.P k U.` I G G I 2.4.9.s.4.f.I S S ;.g.k.h..X}.}.k.q.y.}.<.>.;.` V . ",
"D.F F 2.9.g.h.b.#X:X*X*X:X;Xz.:.I F B ) B 5 , 4 r M F 4.Q.Q.F q R.I k P ;.5.g.k.f.>.>.G G $.:.r.J.J.J.J. X.Xq.y..X}.0.3.;.8.a . ",
"S.I =.3.w.z.@X#X#X#X X*X*X Xg.I I L L L Z x 4 4 j J I t.J.l.S q S.P F =.p.9.z.l.t.:.=.;.;.>.t.k.J..X}.oX}.y.r.J. X}.5.3.I M.V o ",
").4.5.f.k.|.&X#Xx.h.x.8X#Xk.:.K L L L x x x j r M _ 9.j.H.9.k , d.F I 5.9.j.k.t.5.=.G 3.5.H.J.}..X.X|.$Xy.0.0.V.}.y.3.3.I F.U . ",
"'.f.w.y.k..Xn.h.-.,.i.7X Xw.&.F F B Z 4 5 x m C I 9.H.j.4.2.k , a.I 4.g.j.j.y.y.>.;.=.t.J..XXXoX.XJ.J.k.7.*.7.y.0.0.3.9.6.M.U o ",
"{.f.w.w.y.J.h.%.@.<.+X%XJ.4.1.K A N m 4 2 4 N _ f.A.f.9.;.F q , d.` f.l.k.g.y.w.t.w.t..X.XXX.XJ.t.w.5.1.;.0.t.5.1.3.r.j.2.[ c . ",
"5Xf.g.4.y.h.,.=.,. XeXY.t._ K L B j 5 4 4 j L 9.K.j.9.;.K S q , f.a.H.l.j.y.y.y.k.z.J.oXXX}.y.r.1.#.G $.3.t.t.3.:.5.j.N.! ) u . ",
"sXL.J.j.L.}.w.q. X=X%Xt.2.K L B N 5 5 h m A ` A.f.9.;.F F F q 1 R.f.f.l.y.y.y.y.k.z.}.}.J.r.*.#.#.$.G 2.5.5.;.2.r.t.9.2.C / p . ",
"zXY.L.L.%XXXh.|.0X7Xy.7.K M M N m 5 h j B _ f.A.f.;.G G I I j j ].R.H.g.y.y.J.y.k.y.y.y.0.*.f #.K 1.2.9.9.;.D K j.j.7.J M / a o ",
"5X$X9XjX9XXXt.t.k.c.7.~ ! B M r 5 j N M ) d.K.f.4.G S G p.a.P k Q.4.9.t.J.i.i.y.y.y.J.t.3.f D 1.w.9.t.2.I D S ;.9.2.K r M T a   ",
"aX&X9X,XXXt.:.w.z.y.3.J J J B N m M M L _ 4.f.2.=.G G I 5.a.F q K.2.5.z.}.}.}.y.y.t.y.*.&.$.3.H.Y.L.K.K K F F 2.9.2.S e M ( b   ",
"kX&X,Xj.7.K $.5.J.j.1.S B P L B M B P 4.4.4.I G S G ;.4.f.8.l q f.4.t.%XXX}.c.y.t.g.k.t.9.r.t.H.K.5.2.F F K I 9.9.1.t t C X.U . ",
"xXQ.t.K D S G w.z.t.K J P P S M J I 4.f.9.2.I G G :.>.f.f.5.k , K.t.L.7XoXy.0.0.w.k.L.<X>XH.9.2.I F M K J ! 4.9.4.G e S I D.( o ",
"xXH.G t f H 2.g.j.5.K J F B M S I 4.A.f.9.>.;.5.9.w.g.f.f.2.t , L.l.XXXXJ.e.0.e.k.J.|.$XJ.9.I K J J F P F G 2.9.r.I S 1.8.G.( + ",
"aX4.k y S ;.9.l.j.2.D F F S F P 2.f.L.t.5.>.5.g.k.J.g.f.5.;.0 7 L.H.XXw.r.q.y..X@XJ.K.4.2.2.K J F F F L B F 2.9.y.r.3.9.A.F.Q o ",
"T.K S G K 4.f.K.9.;.S F F I 2.4.s.f.w.;.:.5.s.h.l.l.g.f.5.G 8 q $XY.XXy.i.y.y.}.L.s.;.K K K K F B F B ` L F 4.H.J.H.V.J.H.Z.V o ",
"F.! K 2.2.4.f.l.9.I H K I 4.f.H.j.5.;.K ;.5.s.s.s.w.f.4.;.S q t 6X%X2X7X.Xy.r.t.5.I F F K J J J P ` a.` _ I f.J.J.k.J.L.A.] a . ",
"Z.4.4.;.6.A.I.f.I K 2.9.f.H.U.Y.K.4.J I ` ` I ` 4.a.a.a.F k k l 2X$X4XY.H.3.2.2.4._ J B J J J ! P 4.d.4.9.f.H.H.H.J.l.Y.f.` 5   ",
"C , = M f S K F q t f 1.;.I 2.4._ M r 3 1 1 h q M F F j j k q 7 j.2.2.f t r t m j r 4 M d r r m M J P k l G I I ;.;.;.1.J M i . ",
"L r w r 9 r k k q 0 f t t t 9 0 , : * , 1 , , , q q q , q l - $ I y e = : e r 1 , , < - > > - : , 1 , & = 9 w w y y S 0 : > %   ",
"G.f.H.H.H.Y.&X2X$X,X>XXXXX,XY./.U.P.P.A.S.K.f.f.R.K.R.Q.2X6X4.G jX$XH.j.I.XXY.A.d.Z.S.F.U.'.'.Y.H.H.t.j.Y.$X&X&X;X9XjX2XY.f.Z X ",
"`.U.H.I 7.H.L.Y.L.9.3.I 2.2.2.I H M S M F ;.4.f.k.L.l.L.$XQ.G w <XJ.4.7.9.t.4.K F K 4.2.4.8.4.F l k D I 5.s.g.5.5.g.g.9.I F 4   ",
").9.4.3.N.H.Y.L.f.3.1.1.3.2.2.I F H S K I 9.t.J.L.|.|.l.L.K.G y 6XJ.2.t.t.4.1.J J _ 8.U.H.r.G k y G ;.j.g.z.g.g.g.z.J.K.A.8.Z . ",
"`.f.4.t.J.Y.Y.z.s.w.5.K K K G H S D K 9.y.j.H.k.|.|.J.z.J.H.=.D wXJ.t.j.9.2.~ K I 4.P.j.5.K S y D ;.9.k.z.g.<.5.<.t.k.N.9._ Z + ",
"F.f.4.9.H.K.f.:.>.w.y.3.;.K G G 1.2.9.7.7.t.w.y.b. X@XJ.J.H.&.S 2XY.J.H.t.2.K I 2.9.9.3.K G D =.w.l.k.|.k.g.w.<.t.z.J.XXH.4.x   ",
"F.F ;.f.t.3.;.-.t.t.4.K ;.5.r.t.J.L.J.r.t.t.w.}.=X+X Xt.k.y.*.w 2XH.3.5.&.l H 2.r.4.G D D $.;.t.g.J.$Xz.h.e.w.g.z.b.J.J.2.4.Z   ",
"S.F =.3.9.9.5.:.>.3.-.3.j.L.L.L.L.t.3.4.y.}.}. X%X+Xx.e.H.y.-.w 9Xj.2.;.K K 1.2.;.1.G G G *.w.k.k.k.|.z.g.t.w.g.h.h.J.J.2.9.Z   ",
"F.G 4.3.5.5.;.$.=.>.,.l.z..XL.L.H.2.D ;.y.@X+XoX Xx.e.e.k.w.*.w 2X9.;.G K 4.;.I G H G G =.5.J.J.J.g.h.k.h.t.t.t.h.k.k.t.1.8.Z   ",
"Z.K 5.t.5.&.D z :.k.|.L.L.k.k.t.>.1.D 1.y..X#X Xx.e.q.y.y.w.G w &Xj.2.I 4.5.;.G z D K &.;.w.L.@XJ.k.j.J.k.t.<.,.w.k.J.7.~ 9.Z   ",
"F.;.f.H.2.D z %.g.oX7X|.z.l.g.t.3.=.&.=.w.}.|.k.e.e.k.h.g.t.G w 2XR.f.f.a.4.I G G K &.=.:.t.L.|.J.k.k.k.t.:.;.:.5.h.J.2.1.9.!   ",
"W.4.g.t.1.$.:.z.#X%XoXk.g.g.h.f.>.*.&.5.w.h.z.x.x.x.c.e.k.j.;.w hXE.l.f.4.I G ;.2.3.;.1.3.w.J.L.J.l.t.5.:.$.$.;.3.t.y.2.1.H.) . ",
"`.s.J.5.:.5.k. Xb.c.z.>.>.>.5.:.$.;.3.w.>.t. X@X Xx.c.x.|..X>.w 1Xf.p.P P F I 2.5.3.=.1.;.w.J..Xk.w.5.1.G D &.3.t.t.r.*.2.L.' . ",
"[.f.L.t.0.t.|.|.z.e.w.<.:.;.=.$.G >.J.w.,.t.b.%XOXc.y.}.%X&Xj.t E.I k j k F 4.9.t.4.1.$.*.t.J.L.t.3.;.$.G G =.t.H.t.5.3.2./.[ o ",
"6Xl.z.h.|.|.|.z.w.>.;.;.=.;.;.=.:.5.k.3.e.}.=X=X.X}.y.+XoX$XF 1 Z.h < ; h P 9.A.9.I D G :.h.J.L.w.=.G z $.:.f.t.t.0.t.V.V._.( @ ",
"6XJ.L.7X<XoXb.s.:.*.;.;.;.;.5.t.t.g.y.y.}..XoXoXi.e.i. Xk.l.y < Z.g 4 1 j P 8.4.4.I G &.3.k.z.g.>.;.G &.;.w.h.j.t.,.0.}.V./.U . ",
"5XY.%XjXqX|.y.:.=.$.&.r.4.>.f.z.J.j.y.J.}.|.}.}.q.e.J.y.*.&.0 > Z.i i m C ! _ _ I ;.;.3.t.z.J.g.w.>.>.>.5.g.f.g.t.e.y.}.7.m.a . ",
"hXY.#X%XXXJ.<.:.=.3.3.y.w.f.k.z.k.t.t.k.k.}.}.c.y.y.i.0.#.K 9 , S.x m C J ! ~ ~ K I 5.w.k.|.|.z.g.f.g.w.5.g.z.k.k.c.}.5.~ ^ p . ",
"kXL.z.w.y.y.t.w.>.t.r.t.t.y.k.y.y.t.z..X}.}.}.}.J.e.0.0.$.2.t r S.x C L ! K H S K ;.t.k.c.@X@XJ.h.s.5.>.w.z.oX<X@Xz.k.#.S ^ a . ",
"5Xg.w.y.y.z.h.g.w.0.3.3.5.t.k.J.k.|.oX<XXXJ.J.J.r.*.*.r.3.t.M 5 S.Z ! ! J J J H ;.5.j.J. X|..Xh.>.;.;.>.g.@XjX0XXXe.*.K S [ p   ",
"3Xg.g.J.J.y.y.>.:.0.0.3.3.y.}.oXoX%X<X%XJ.w.5.:.*.*.3.j.t.H.y , G.B L L J H H &.3.g.k.}.}.}.y.w.>.:.;.f.h.XX<X<X}.*.G 1.J ' u   ",
"'.f.h.k.y.w.3.=.*.*.0.0.w.k.oX9X9X<X&Xk.5.G z D $.3.j.J.j.V.r * S.A J J S H 1.1.r.f.J.J.J.k.t.3.3.5.t.k.j.g.g.y.0.*.#.D S ' p . ",
"'.>.w.w.t.y.*.;.5.w.5.r.k.@X%X<X%XJ.w.*.G $.:.>.2.w.L.g.H.9.d - d.B F J K 1.*.5.t.J.J.k.y.y.w.t.t.J.J.5.:.*.*.3.w.0.5.3.~ Z c . ",
"Q.5.<.3.t.y.w.<.g.J.}..X}.oX$X.Xg.3.&.$.G ;.>.5.4.t.H.f.H.4.d , Z.F J I 1.0.t.y.J.J.}.J.j.y.t.g.k.k.f.=.K $.&.5.t.y.y.5.! Z c . ",
"W.;.>.w.y.k.k.z.|.%X%X.XXXXX@Xy.*.G D $.1.>.t.f.w.f.H.H.A.4.q > f.L K 2.r.J..XXXXX|.}.J.J.j.J.L.l.5.2.z D K ;.5.t.k.J.r.P C p   ",
"U.3.<.|..X}.z.b.$XXXXXJ.J.}.}.t.;.*.:.:.5.g.z.f.9.f.J.H.9.I r > f.K I w.J.oX7X7XoX X}.j.j.J.J.J.s.;.G G ;.;.3.>.4.r.t.7.K C p   ",
"U.3.z.%X.Xg.h.z.z.J.y.0.t.k.k.t.w.w.g.t.j.f.w.>.5.g.H.H.6.! r , A.I 4.l.}.7X0X7X X}.z.t.H.H.j.4.I G S K ;.f.9.5.3.3.5.3.H ! a . ",
"W.w.J.XXJ.w.t.g.g.0.3.3.t.j.t.t.j.j.j.H.J.t.;.;.>.f.j.4.2.J 5 , f.` 9.J.XX7X=X+X}.}.c.j.y.j.4.K S S F I 4.5.4.>.;.5.t.2.~ ^ R + ",
"`.g.z.J.j.t.k.z.,.*.$.r.k.J.w.f.J.k.w.g.f.5.=.=.>.f.w.2.K J r , S.;.j.XX7X7XoXi.y.y.c.L.z.9.;.S S G ` p.4.4.I K ;.9.k.r.7.M.Q + ",
"`.g.z.g.g.L.|.L.5.K K t.L.Y.j.f.Q.I.9.f.9.;.G K 5.f.4._ ! A r 1 S.4.A.$X%X,X.Xy.y.j.J.4XK.4.P F P I ` d.a.` F M I 8.I.(.V./. .O ",
"T.R.p.s.f.R.L.s.G F ~ Y.Y.P.P.A.8.4.{ ! L F P ` f.H.F.! ' ! 5 m { S.A.1X'.P.B.8.8.f.A.`.Z.) L P ) ) { O.) P L { Z.G.).B.(.B.! O ",
"..O.O.) ) [ [ ! m U ! T T E R U s a a U s a c Z T Q ( W | Q b b | O.[ ..[ ( Q R W / ( ( n p p p c a n b c u c n Y W Q o.C. .s O "
};
