/* XPM */
static char *_538241008171[] = {
/* columns rows colors chars-per-pixel */
"64 64 256 2 ",
"   c #391317",
".  c #370C16",
"X  c #3D291A",
"o  c #3D3415",
"O  c #3B092B",
"+  c #3B1327",
"@  c #3D013C",
"#  c #3C0934",
"$  c #330D2B",
"%  c #3C3027",
"&  c #47131A",
"*  c #452B0D",
"=  c #45330C",
"-  c #442D13",
";  c #452D1D",
":  c #492917",
">  c #443214",
",  c #4D341B",
"<  c #483918",
"1  c #533C1D",
"2  c #57381C",
"3  c #543113",
"4  c #653C1E",
"5  c #440B2C",
"6  c #4B0D2D",
"7  c #440928",
"8  c #44122D",
"9  c #481627",
"0  c #531A2A",
"q  c #430433",
"w  c #4B0434",
"e  c #440B34",
"r  c #4B0B34",
"t  c #44023C",
"y  c #4B043C",
"u  c #450B3B",
"i  c #4C0B3B",
"p  c #52033C",
"a  c #520B3D",
"s  c #560B37",
"d  c #4C1435",
"f  c #4D123B",
"g  c #481836",
"h  c #55123C",
"j  c #5C133C",
"k  c #531C3D",
"l  c #5C1D3C",
"z  c #551833",
"x  c #63193C",
"c  c #610D3E",
"v  c #4B2425",
"b  c #4B2C23",
"n  c #45242A",
"m  c #4D242D",
"M  c #4B2C2A",
"N  c #452924",
"B  c #522D24",
"V  c #52242C",
"C  c #532D2D",
"Z  c #5A2C2C",
"A  c #572327",
"S  c #4C322A",
"D  c #493525",
"F  c #533523",
"G  c #5C3C24",
"H  c #54332A",
"J  c #5C342C",
"K  c #533B2B",
"L  c #5B3B2B",
"P  c #573924",
"I  c #4D2333",
"U  c #4A2638",
"Y  c #522433",
"T  c #5A2435",
"R  c #542B34",
"E  c #5C233C",
"W  c #5B2A3C",
"Q  c #56283A",
"!  c #5B3333",
"~  c #5B3C34",
"^  c #573437",
"/  c #493533",
"(  c #633A2C",
")  c #633729",
"_  c #642D3A",
"`  c #642939",
"'  c #633334",
"]  c #6B3B34",
"[  c #64333B",
"{  c #6C343C",
"}  c #6C3B3C",
"|  c #653937",
" . c #733B3A",
".. c #6B362E",
"X. c #59421D",
"o. c #4E421A",
"O. c #64431F",
"+. c #5A4325",
"@. c #594528",
"#. c #53473B",
"$. c #624224",
"%. c #6C442B",
"&. c #6C4A2B",
"*. c #674827",
"=. c #76492C",
"-. c #6A4635",
";. c #744434",
":. c #73433C",
">. c #774939",
",. c #71522F",
"<. c #3E0141",
"1. c #3F0148",
"2. c #440144",
"3. c #4B0245",
"4. c #4D0B43",
"5. c #45014B",
"6. c #4C014B",
"7. c #490B47",
"8. c #520445",
"9. c #590145",
"0. c #530B44",
"q. c #5B0D43",
"w. c #53024C",
"e. c #5A034C",
"r. c #530B4B",
"t. c #5C0C4C",
"y. c #4A1843",
"u. c #541346",
"i. c #5C1445",
"p. c #541B43",
"a. c #5C1B44",
"s. c #54134C",
"d. c #5B144B",
"f. c #5C1B4C",
"g. c #551A4B",
"h. c #4D0152",
"j. c #470353",
"k. c #540153",
"l. c #5B0154",
"z. c #5C0B54",
"x. c #55015A",
"c. c #5C015B",
"v. c #5D0B5B",
"b. c #540B54",
"n. c #5C1453",
"m. c #5A1853",
"M. c #620C4D",
"N. c #66094A",
"B. c #621C43",
"V. c #63134C",
"C. c #631D4B",
"Z. c #6A1C4B",
"A. c #661745",
"S. c #620255",
"D. c #630C54",
"F. c #63025C",
"G. c #6A025C",
"H. c #630A5C",
"J. c #6A0B5C",
"K. c #6A0A55",
"L. c #641453",
"P. c #641B53",
"I. c #6B1B54",
"U. c #6C145C",
"Y. c #6C1C5B",
"T. c #671559",
"R. c #73145C",
"E. c #75195A",
"W. c #731354",
"Q. c #542242",
"!. c #5D2344",
"~. c #5B2746",
"^. c #5D3344",
"/. c #59234E",
"(. c #642443",
"). c #632C44",
"_. c #6A2C44",
"`. c #6C2C4C",
"'. c #67254B",
"]. c #732A4A",
"[. c #663242",
"{. c #6B3446",
"}. c #723544",
"|. c #7B3C4C",
" X c #773849",
".X c #642352",
"XX c #6B2453",
"oX c #6B2A54",
"OX c #6A275A",
"+X c #712453",
"@X c #742B59",
"#X c #782856",
"$X c #7B3B54",
"%X c #773656",
"&X c #5D0163",
"*X c #5A0164",
"=X c #630264",
"-X c #6A0364",
";X c #630963",
":X c #6B0C63",
">X c #64026B",
",X c #6B026C",
"<X c #6C0B6B",
"1X c #650A6B",
"2X c #730D64",
"3X c #72036C",
"4X c #720C6C",
"5X c #780768",
"6X c #6C1364",
"7X c #6D126A",
"8X c #691B61",
"9X c #721363",
"0X c #73136B",
"qX c #7A1768",
"wX c #6D0272",
"eX c #6B0673",
"rX c #730273",
"tX c #7B0475",
"yX c #750C73",
"uX c #7B0B73",
"iX c #74027A",
"pX c #7C047B",
"aX c #750B7B",
"sX c #7A0B7B",
"dX c #751272",
"fX c #7C1576",
"gX c #681273",
"hX c #772765",
"jX c #7B3463",
"kX c #6E2B61",
"lX c #764445",
"zX c #674A47",
"xX c #6C645A",
"cX c #524D44",
"vX c #80542D",
"bX c #853958",
"nX c #83394F",
"mX c #810A6A",
"MX c #811667",
"NX c #83077A",
"BX c #861475",
"VX c #872A68",
"CX c #873366",
"ZX c #8C2C73",
"AX c #824256",
"SX c #834A46",
"DX c #7C0483",
"FX c #7A0984",
"GX c #840283",
"HX c #8A0B85",
"JX c #920B86",
"KX c #881285",
"LX c #941488",
"PX c #920B93",
"IX c #A20F99",
"UX c #A314A1",
/* pixels */
"v.H.&X6.2.2.<.<.l.,XpX=XH.2.<.@ @ @ 5.h.rX3XM.j j i.e.6.<.<.@ @ <.<.h.h.=XrXDXpX5XG.>X1.5.<.5.5.2.@ <.<.@ 2.3.2.c.c.9.s 6 7 8 8 ",
"@XI.:X<X6.5.<.b.=XyX,XrXc.k.2.@ @ <.5.&XuXBXCX%X%XhXt.6.<.<.2.2.2.5.5.x.,XiXFXGXtX3XFX1X2.@ <.2.5.@ 1.<.3.6.w.c.-X:XZ.nX|.lXlX%X",
":.}.R.3XyX-Xw.l.G.,X>XeX>X&Xw.2.5.h.&X<XqXVX$X`.%X+X+Xa 7.r.2.8.3.w.k.c.iXDXiXNXrX3X>X;Xb.@ <.2.2.<.1.<.x.S.F.1XdX6XSX..;.}. XlX",
"Z ..VX2XrX&XF.c.c.c.*X>X*X&Xl.6.k.k.=XyXqXCX+X(.a V.@Xh 4.y y p 0.8.l.c.wXDXtX4X:XF.e.w a 5 e q e y.# @ 9.S.F.,XdXhX .=.;.' _ & ",
"(.%XA.N.yXwX*X&Xc.c.&X=X&X&Xx.h.l.k.c.>XyX0Xl.l.-XR.CXh y 4._  .{.B.v.&X*XeX<XK.p s { ]  .] ;.) ) Z M U i 8.l.-X<XZX:.=.V 9 _.z ",
"6X8X'.L.4XwXFX*X;XH.<X<XdX<X<X<X=XF.&X=XwXaX3XsXtXG.XX6 e {. .=.:.`.<XeXc.e.d.Z.(.' %.&.*.*.O.X.) ( F @.T r 8.=X4XM.:.P Y k (.x ",
"wX0XhXt.yXiXDX,XJ.I.9X9XVXK.-XrXpX,XwX&X=X=X-X,XeX;Xg.g [ lX-.2 P }.6X-Xz 9 Z ] =.=.%.%.=.) 1 1 * L v C $.v f w.-XE.} | Q m.OXa.",
"FX<XhXI.-X,X,X0X#XbXB.%X@XM.S.rXrX,XFX,Xc.c.F.&X=Xx./.+ -.@.! 9 & ].F.e.Y P *.,.=.=.=.=.&., @.b . [ r 7 | M Q 3.S.T.lXL p.f.oXw ",
"wX<X#Xa S.-XW.nXSX=.>.' ).q.l.S.F.F.=X<Xx.&X&X=X-XG.hX0 ) ' r Y.s XX8Xr.v *.*.,.vXvX=.=.*., . W 9 .XH.D.oX9 ~.e k.9.{.J Y k `.7 ",
"=XJ.hXq.F.3XR.nX=.%.1 L `.d.e.l.t.0.e.3.r.e.;X1X-XJ.Y.r ] { ;XeXE.q.s./.-.G 3 ,.=.vX=.=.X.- & k a 8X7X6XoX8 R d 6.9.[.! T a..Xe ",
"c.l.q.D.,XNXMXCX;.$.G | E i.l.e.l ).[ [ ' E w.x.k.v.8Xi ` a 3XrXD.d.u I L %.0 SX>.&.) 4 1 B 6 3.l.9X.X'._.v B Y k.k.d W z f s.j.",
"l.e.Y.D.pXNXBXCX' +.H m E u.9.V.^ lXlXlX} }.z.c.x.b.6.t .Xt.yXF.l.P.# I F P 0 AX-.$.| ( Z ' k P.e.U.(.' [ Z , M z.c.r `.!.i 5.h.",
"w.r.n.z.pXKXqXc ( , m g Q f a w lX-.'.j }.].0X,Xl.6.6.7.u.y z.w.w.6.2.f ~ : ` $X-.-.).f j oX^.Y a._.! C R [ H m D.;Xp .Xm.r.6.5.",
"k.w.8XH.BXuXVX|.|._.a.4.p.$ h }.;...i.t.Z.VXuX,Xl.3.@ @ u t 9.x.k.h.k.y ! H ` ].| W i t.R.s ! , }.{.W m k !.S I z.7Xe.3.6.5.5.6.",
"c.k.x.&XU.jX].nXN.G.rX;Xy.. 8 ).%.{ 8.6Xs hX<X,Xx.2.e # u.0.-XeXgX;Xl.8.W Y x bX6 oXV.J.R.A.:.2 -.' a.L.H.s.I I M.2XH.k.h.k.6.t ",
"k.c.=X1XP.CX].c mXJXHXgXy.$ + [.;.{ e.0X8.@Xv.x.3.f Q R E i H.-X-X-Xk.y !.8 Z.CXA.`.w +X]. X=.*.2 v i.J.rXl.k W a.t.v.h.k.w.6.3.",
"l.l.c.<XL.VX:XmXNXNX5XS.y.$ + %X` Z.F.-X4.P.x.6.r [ -.,.( ' ).0.v.k.9.y !.a T.ZXI.'.Z  . .;.%.&.*.( l M.,X=X6X'.T Y g.3.6.6.w.6.",
"l.x.x.;XD.ZXiXHXtX-XG.9.f $ i jXW.qXc.&Xr.m.x.w. XSXlX>.lX:.' 8 0.b.2.t C.0.8Xl.L._.=.*.=.&.G P L J z t.dX>X=Xn.T I y.7.6.6.k.l.",
"F.c.x.x.H.hXiXGX&X,X4Xk.p.O 9.2X-XyX<X;X9.8.l.6XbX . X#X].]. .' s 8.e.2.g.d.G.8.s Z =.&.3 2 - H X ! Q.s.;Xc.c.6Xi.p.2.1.h.6.9.k.",
"l.=X*Xx.v.H.FXiX>XgX,X&Xq.0.l.,XsXaX>Xc.l.e.l.U.bXc VXW.XX` }...T a.w.w.g.u.6XN._.) ;.2 Z : n W   ^.y.s.k.-X>XdXq.m.5.j.x.x.e.t.",
"J.G.>X&Xc.F.yX>X=X-X>XgX&Xx.-XaXeX*X*Xx.w.9.Z.VXNXIXBXMX` [ Y ^.^ Q i 4.f.r.H.w.w _ :.( g f 7.4.p.oX0.m.k.;Xc.F.j '.6.k.l.z.i.j ",
"CXI.9X;Xl.=X-XF.-XF.>XeXgX&X&Xl.l.h.x.x.v.Y.nXCXmXJXmXCX(.[.k ).M N I f p.g.b.6.i `.A ` h m.v.k.6.r.w.z.b.l.c.J.s l 0.z.OXCX|.|.",
";...`.P.z.=Xc.F.,XiXpX=Xb.2.2.6.i 8.;X1XT.#XnXnXbXbX X{.l q m.m.+ b M B L R r.h.t.I.'.'.s.w.x.c.-X3XF.F.c.h.h.y A ) C.P.nXlX;.%.",
"4 ] -.~.v.x.c.-XtXGXpX-X6.t # `.{.i.c.=XI.nXnXA A >.2 ~ i v.T.i m ; F +.*.#.e r.F.J.A.M.z.x.=X=X=XaX,X=Xx.x.5.@ Z ( %XbXbX|.:.-.",
"_ { J R L.<X3X3XNXNXpX-Xw.O {...! (.h.1XW.bXnX0 Z } L V e.6Xf n ; < < < o.P [ h z.;XR.J.yX,X,XsXaXwXaX>Xx.1.j.y ( ;.nXbXW.MXA.].",
"s r ^ z f.F.3XtXtXpX=Xw.t r {.v & Q.k.v.L.CXbX X X{ 9 T D.U.^.D > > X ~ J B Z {.s.8XG.-X3XpXpXrX*X*X>Xk.2.5.x.q.:.;.nXW.MXN.G.K.",
"l.3.d Q.a.d.-X,X,Xv.h T } lX%Xr g .Xz.T.E.VXbXj y 4.a.j P.g.[ b > J d r s ]._ T M U z.0X=X=XaX1X&X6.3.y 6.w.G.Z.>.=.].nXZ.p G.S.",
"4X6Xm.oX`.a 4XwX&Xk.!.[ ! [.a 8.0.r.w.v.J.R.VXK.c.;XZXVXCXoXv : C ~..XI.+X].l ' D M i.G.S.c.;X6.3.i y y 6.l.R.CX}.lXCXCXbX$XN.S.",
"F.G.d.oX@Xy -X*Xx.h.T.i.k XXK.5XfXS.k.c.<XyXBXmXHXPXJXBXE.#Xz ` i.P.oXx B.`.s [ K D k p 3.w.w.a { { ).0.k.G.qXVXnX}.MX#XlX:.%XM.",
"=X:XL.jX@XI.l.c.*Xx.l.e.d.8X2X5XS.l.6.6.&XtXNXLXHXJXNX5XI.XXA.w qX9Xa.d s @Xh _ @.F Y j y r.t @X}.` u.k.-XuXqXVX#Xx VXVX].nXbXl ",
",X4XU.XX+XA.e.G.x.x.k.-X-X1X6XXXB.Q.5 y F.GXpXHXBXK.W.M.[.).I.;XaX4Xf.r 0.I.j !./ S U f y C.i OXhXqX2XrXNXNXmXZXmXLXyXuXNXMX X] ",
",XyXe.@X+XZ.G.2Xv.x.,XNXKXfXP.E m ^.k g.-XpXKX5X#XbXCX` M ^ e.KXiXrXT.3.v.D.V.).~ N Q.p.a i e kX<XsXiXpXNXNXMXZXNXUXwXiXPXBX{ O.",
"&XdXq.'.C.I.S.-Xx.*XNXIXIXBX`.| | W /.6.sXtX5X#X X..' C ~ g BXGXtXpX&X=XiXaXE._.J b Q.u.7.t e .X;XaXsXrXwXrXW.VXNXPXrX-XrX9X! o.",
"c.;XL.#XXXK.-XrX*X>XPXIXBXqX| L ] ].s.x.FXpXI.$X .:   M ^ !.sXGX-X-X>XaXDXiXR.` ( H p.s.b.3.5 f.&XwX,X=XwX2XZ.VXFXPXwXc.H.C.S < ",
",XF.E.jX+XN.yXtX>XwXIXHXhX_.H F 0 +XH.>XDXuXq.$Xl r 3.4.R ^.0X-Xk.F.wXiXFX-Xi ^.C Q d.b.j.2.5 '.b.x.F.l.-X=XT.hXwXFX>Xl.M.x H < ",
"5XS.U.@XI.D.yXrXF.tXGXNXA.} > , E V.H.-XDXsX0.a.y k.1Xk.Y m t.x.5.x.>XaXpXF.4.^.g d z.x.h.5.r (.2.b.c.k.l.l.t.hX-XaX>Xx.9.s J 2 ",
"l.9.L.Y.P.z.=XF.c.3XGXNXN.Z , F I P.b.c.>XaXs..X8.F.=X8.M v q w.*X*X&XeXyXF.8.OXa.w T.x.x.b.a f.w.k.k.w.w.w.a OXe.<XeX=Xl.p { ) ",
"w.b.v.T.z.b.l.k.x.-XpXNXR.x S D + .X3.k.&X;Xd.oX3.&Xc.t I M e 6.1X*X&X<XF.F.H.z.C.8.0X-X*X*Xi.XX9.k.l.c.x.w.3.OXy w.&X1X-XM.:.&.",
"k.c.<X;Xk.6.h.k.x.x.iXwXsXD.W 9 r f.t 6.x.x.u /.@ b.c.3.p.k y 8.k.h.k.;X,X,X&Xv.i.q.G.rXDXFXn.C.9.F.,XwXwX>Xb.Y.e.w.5.x.k.y :.&.",
"x.x.,X=Xk.w.x.x.x.*X*X>XwX=XP.a 4.y w.w.h.h.e Q.@ b.6.8Xu.g.q 3.6.k.l.F.rXFXc.H.a V.S.iXGXsXi.!.p z.7X<XFXaXF.S.e.3.2.6.2.O | +.",
"l.c.;X=Xz.t.-X&XwX&X*X*X>XrXuX4XsX>Xc.x.x.6.i p.y 6.h.b.y.u t 3.3.l.-XyXaXwX*Xx.4.n.l.yXwXl.f C J ' `.C.9X<XuX-X-XS.w.2.5.@ ~ o ",
"l.l.&X6XCXCX6X1XaX,X*X&XyXNX5XuX4X7X;X&X>Xk.i a.3.5.h.6.# g.t 3.k.l.3XsX>X*X*Xv.6.r.l.c.c.U.(.' G *.-._.hX0XrX,XtX-Xc.w.5.t / o ",
"w.l.D.ZX+X+XOXt.F.G.,X3XuX2XCX|.' ].K.-XuX;Xw i 3.5.k.2.# p.2.b.;X=X&X=Xc.x.h.x.k.h.k.x.F.<XT.}.;.$.! 8 OXv.aXrXNXrX3XF.e.w b = ",
"x.8.Y.+Xc A.'.0.l.-XBX5XK.CXnX:.2 Z t.c.,Xl.q E u 2.i q 8 /.w.c.&X=X=X>Xx.c.x.k.h.h.k.v.:XJ.qXbX} ~ U O OXl.uXpXNXiXpX-XF.y v * ",
"h.n.T.#XK.R.+XW.2XaXI.bXAX$X{ ' ) C 0.l.l.8.7 Q 9 ^ [ ) J `.dXGX&X=X=X-X3X,X=Xx.h.k.x.l.S.W.9XE.Z.I.0.2.k.c.,XiX,X>X>X>X>Xk.k   ",
"5.6.s.Y.J.S.qXH.,XyXT.`.`  Xs 6 ` Q 8.&Xc.3.7 C ! ,.$.X.) |.BXHXsXc.9.G.pXpX3X=Xc.h.F.z.I.bX#X#XU.U.3.2.3.H.2XBX,X=X&X>XFX*Xu.. ",
"*X3.i OXG.tXuXwXDXFXF.hXl.:Xw.9.8.D.D.7X;X3.q ).;.,.,.O.O. .mXPXqXjX(.h BXpXrXsX1Xx.G.E.}.|.x L.J.e.q q z ` E.E.4X,X-X,XFXeXr.# ",
"5.b.O P.2XpXpXwXGXiX<Xl.yX=Xx.;X7XfX;X6X;Xw.w { >.,.=.&.=. .N.BX9XhX XE :XiXtXrX>Xc.M.%X;.] ` Z.t.r.r W B ..nXbX0X>XaX,XiX>Xr.u ",
"6.2.8 /.c.3X-Xc.,XsX=XF.w.l.1X,XfXH.H.v.c.D.7  .=.,.O.O.&.;.].W.BX5X]._.N.qX3XtXrXF.|. .*.*.-.lXd C.E } G &.>.}.z.-XiXwXiXaXr.f.",
"r.@ # y.k.F.c.c.c.-Xx.c.H.&X&X-Xz.K.H.7XH.8.$X:.) 3 &.X.1 -.>.nXmXmX+X`.T.S.-X-X,XU.|.%.$.G ( _ %XC.l lXlX-.( T 9.c.wXiXiXyXz.a.",
"3.@ # y.6.k.k.k.x.*X1X&Xx.c.x.w.q P.6.n.4.7 T  .X.O.o.= +.+.G } c W.Z.XX.Xa w.w.q.%X X) { 0 r w.F.J.V.`.` & P _ 0.-XDXFXwX2XK.L.",
"2.@ $ y.2.5.6.h.k.h.&X>X*X,X-X3.# p.i u ~.zXlXzXO.O.= O.1 F F v {.CXB.`.E 7 4.4.e jX`.x ` 7 y b.z.8Xx @X.Xh { V D.uXgX-Xl.K.t.y ",
"6.@ # # 1.7.6.w.v.=X&X=X-X=XF.w.4.U 9 H -.~ H D X.= +.( H H M ! ~.~.| @.L M O # f OX:XH.f.9 ` [ { Z M {.W.R.j '.7X7X'.[.E 8 5 p.",
"6.@ @ u 5.5.k.c.=X-X:XU.U.K.U.L.t k F *.F H S X P > L B R & 6 i p.E K 1 +.K ^ Q e OX1X1X.X0 Z ( L : ; {.J.2Xi OXJ.fX{.| ~ M g Q.",
"y 2.5.6.w.S.3X5XtXR.$XlXlXlX%Xa.T.r.C F @.n . U I   , , V 7 qX=X-X8.Z = , , 2 M $ m.b.b.OX!.z `   Z M ^.v.b.e Q.T.N.A.W K ^ e 2.",
"2.2.6.6.b.-XNXHXBXMX|.J W [ ^ %X6X3.T -.: + + y.Q 7 C ! I d.tXGXpXR.0 , - - 1 H + g.6.h.d.C.z E 7 V n + w.v.# Q.K.N.M.!.D S e 6.",
"j.h.w.w.c.wXDXPXMXVX9.K.S.V._.'.z.8.` { E q t q a.5 u u g.3.3XGXpX6Xm N n . H m i 6.h.5.f.p.u.k + R ^ # b.6Xi a.x.l.9.'.D D # 7.",
"j.j.5.w.k.H.uXMXN.#XK.4X3X2XA.'.D.z.s B.L.9.t.P.p.e m.b.g.r.>XpXwXH.8 % # # n M i k.x.6.g.# 4.u.6 ).~.a.8.w.q P.x.&X0.7 L L ^.u ",
"j.5.6.6.s j A.].Z.C.kXqXyXG.V.OXG.F.s.r.7X0X6.7.U + g u y.g.c.=X&Xh.# Q.r.u.; v 3.l.6.3.g.f 8.8.w #XL.kXf.6 g f.;Xk.r { vX%.}.{.",
"1.@ 2.0.(.nX}.|.a.d.t.e.S.L.h f.M.8Xu.y k.F.6.7.U I m U U y.i.8.w.4.# g s.4.S   t F.x.9.f.u.c.w.(.'.I.a.9 N & k y u.{ SX..) ] T ",
"U # i d.%X{.`.@XjXm.H.J.'.0 M b X N Y 8 r C.r U E R B H S M b N v V N v U + % N 3.,XF.F.4X7XdXD.9 m v b > o ; b M v >.>.{ 0 z V ",
"% U k (.lX7 a.a.~..X9.d.z H < > o.< B R E Y m M | J P P @.*.1 X.1 , 1 , n N X n s.H.t.D.7X6X6Xm.R D P 1 o.o.o.@.@.&.,.' ! Y n n ",
"% N N n ^.Y !.6 R N v C ^ K @.&.@.@.#./ / / D K < 1 ,.&.,.-.$.*.@.+.+.P L @.D D R ^ / M U Q./ / / D D @.*.*.&.*.@.&.$.3 % % % % ",
"xX#.D N n I p.l ; > - - ; b - > o o D #.xXxX-.> = o o o 3 : B * o > * = - o > o N X o % cXzXcX#./ ; ; > * 3 - > > > * > X % cXxX"
};
