/* XPM */
static char *db7ad97786874c2fbba351ab635e4e10[] = {
/* columns rows colors chars-per-pixel */
"64 64 6 1 ",
"  c #383830",
". c #585048",
"X c #787061",
"o c #908871",
"O c #B0A089",
"+ c #CFC0A2",
/* pixels */
" .XooOOO++oO++.. .oOOOO++oO++XX. .XooOOO++oO++.. .oOOOO++oO++XX.",
".Xoooooooooooo+X Xoooooooooooo+X.Xoooooooooooo+X Xoooooooooooo+X",
"Xoooooooooooooo+.ooooooooooooooOXoooooooooooooo+.ooooooooooooooO",
".oooooooooooooo+XooooooooooooooO.oooooooooooooo+XooooooooooooooO",
".ooooooooooooooO.ooooooooooooooX.ooooooooooooooO.ooooooooooooooX",
" Xoooooooooooooo.XoooooooooooooX Xoooooooooooooo.XoooooooooooooX",
" .XXooooooooooo. .XoooooooooooX. .XXooooooooooo. .XoooooooooooX.",
"   .X.   .oXX..    .XX    Xo..     .X.   .oXX..    .XX    Xo..  ",
"OO+++X. .oooOOO++OoO+++X XooOoOOOO+++X. .oooOOO++OoO+++X XooOoOO",
"ooooo+X Xoooooooooooooo+Xoooooooooooo+X Xoooooooooooooo+Xooooooo",
"oooooo+.oooooooooooooooOoooooooooooooo+.oooooooooooooooOoooooooo",
"ooooooOXoooooooooooooooOXoooooooooooooOXoooooooooooooooOXooooooo",
"ooooooooooooooooooooooooXoooooooooooooooooooooooooooooooXooooooo",
"ooooooX.XooooooooooooooX.XooooooooooooX.XooooooooooooooX.Xoooooo",
"oooooX. .XooooooooooooX. .XooooooooooX. .XooooooooooooX. .Xooooo",
"  ..X.    .XXo.   ..oX    . ..    ..X.    .XXo.   ..oX    . ..  ",
" XoOOOoO++OO++X. XXoooOOOOoO++X. XoOOOoO++OO++X. XXoooOOOOoO++X.",
".ooooooooooooo+X.ooooooooooooo+X.ooooooooooooo+X.ooooooooooooo+X",
"XooooooooooooooOXoooooooooooooOoXooooooooooooooOXoooooooooooooOo",
"oooooooooooooooOooooooooooooooO.oooooooooooooooOooooooooooooooO.",
".oooooooooooooooXoooooooooooooo..oooooooooooooooXoooooooooooooo.",
".XoooooooooooooX.XooooooooooooOX.XoooooooooooooX.XooooooooooooOX",
" .XoooooooooooX. .XXooooooooooX. .XoooooooooooX. .XXooooooooooX.",
"   ...   .X  o.   ...X.    ..X     ...   .X  o.   ...X.    ..X  ",
"OOoO++X .XoooOOO++oO++X. .XoooOOOOoO++X .XoooOOO++oO++X. .XoooOO",
"oooooo+.Xooooooooooooo+X.Xoooooooooooo+.Xooooooooooooo+X.Xoooooo",
"ooooooO.oooooooooooooooOXoooooooooooooO.oooooooooooooooOXooooooo",
"oooooooXoooooooooooooooOXooooooooooooooXoooooooooooooooOXooooooo",
"oooooooooooooooooooooooooooooooooooooooooooooooooooooooooooooooo",
"ooooooX.XooooooooooooooX.XooooooooooooX.XooooooooooooooX.Xoooooo",
"oooooX. .XoooooooooooXX. .XXoooooooooX. .XoooooooooooXX. .XXoooo",
"XX...     ...XXoo...X.    ..XXooXX...     ...XXoo...X.    ..XXoo",
" .XooOOO++oO++.. .oOOOO++oO++XX. .XooOOO++oO++.. .oOOOO++oO++XX.",
".Xoooooooooooo+X Xoooooooooooo+X.Xoooooooooooo+X Xoooooooooooo+X",
"Xoooooooooooooo+.ooooooooooooooOXoooooooooooooo+.ooooooooooooooO",
".oooooooooooooo+XooooooooooooooO.oooooooooooooo+XooooooooooooooO",
".ooooooooooooooO.ooooooooooooooX.ooooooooooooooO.ooooooooooooooX",
" Xoooooooooooooo.XoooooooooooooX Xoooooooooooooo.XoooooooooooooX",
" .XXooooooooooo. .XoooooooooooX. .XXooooooooooo. .XoooooooooooX.",
"   .X.   .oXX..    .XX    Xo..     .X.   .oXX..    .XX    Xo..  ",
"OO+++X. .oooOOO++OoO+++X XooOoOOOO+++X. .oooOOO++OoO+++X XooOoOO",
"ooooo+X Xoooooooooooooo+Xoooooooooooo+X Xoooooooooooooo+Xooooooo",
"oooooo+.oooooooooooooooOoooooooooooooo+.oooooooooooooooOoooooooo",
"ooooooOXoooooooooooooooOXoooooooooooooOXoooooooooooooooOXooooooo",
"ooooooooooooooooooooooooXoooooooooooooooooooooooooooooooXooooooo",
"ooooooX.XooooooooooooooX.XooooooooooooX.XooooooooooooooX.Xoooooo",
"oooooX. .XooooooooooooX. .XooooooooooX. .XooooooooooooX. .Xooooo",
"  ..X.    .XXo.   ..oX    . ..    ..X.    .XXo.   ..oX    . ..  ",
" XoOOOoO++OO++X. XXoooOOOOoO++X. XoOOOoO++OO++X. XXoooOOOOoO++X.",
".ooooooooooooo+X.ooooooooooooo+X.ooooooooooooo+X.ooooooooooooo+X",
"XooooooooooooooOXoooooooooooooOoXooooooooooooooOXoooooooooooooOo",
"oooooooooooooooOooooooooooooooO.oooooooooooooooOooooooooooooooO.",
".oooooooooooooooXoooooooooooooo..oooooooooooooooXoooooooooooooo.",
".XoooooooooooooX.XooooooooooooOX.XoooooooooooooX.XooooooooooooOX",
" .XoooooooooooX. .XXooooooooooX. .XoooooooooooX. .XXooooooooooX.",
"   ...   .X  o.   ...X.    ..X     ...   .X  o.   ...X.    ..X  ",
"OOoO++X .XoooOOO++oO++X. .XoooOOOOoO++X .XoooOOO++oO++X. .XoooOO",
"oooooo+.Xooooooooooooo+X.Xoooooooooooo+.Xooooooooooooo+X.Xoooooo",
"ooooooO.oooooooooooooooOXoooooooooooooO.oooooooooooooooOXooooooo",
"oooooooXoooooooooooooooOXooooooooooooooXoooooooooooooooOXooooooo",
"oooooooooooooooooooooooooooooooooooooooooooooooooooooooooooooooo",
"ooooooX.XooooooooooooooX.XooooooooooooX.XooooooooooooooX.Xoooooo",
"oooooX. .XoooooooooooXX. .XXoooooooooX. .XoooooooooooXX. .XXoooo",
"XX...     ...XXoo...X.    ..XXooXX...     ...XXoo...X.    ..XXoo"
};
