/* XPM */
static char *_4948d467a924d6f8ad097b6e095e8ce[] = {
/* columns rows colors chars-per-pixel */
"64 65 7 1 ",
"  c black",
". c #100000",
"X c #180000",
"o c #2F1002",
"O c #3F2003",
"+ c #6F3015",
"@ c #9F6014",
/* pixels */
"O+++@@@O++@@+ooX.XoooOO+++@@@OOOO+++@@@O++@@+ooX.XoooOO+++@@@+@ ",
"OOOOOOOOOOOOO+@o.oOOOOOOOOOOOOOOOOOOOOOOOOOOO+@o.oOOOOOOOOOOOOO ",
"OOOOOOOOOOOOOOO@XOOOOOOOOOOOOOOOOOOOOOOOOOOOOOO@XOOOOOOOOOOOOOO ",
"OOOOOOOOOOOOOOO@XOOOOOOOOOOOOOOOOOOOOOOOOOOOOOO@XOOOOOOOOOOOOOO ",
"OOOOOOOOOOOOOOO+oOOOOOOOOOOOOOOOOOOOOOOOOOOOOOO+oOOOOOOOOOOOOOO ",
"OOOOOOOOOOOOOOO+oOOOOOOOOOOOOOOOOOOOOOOOOOOOOOO+oOOOOOOOOOOOOOO ",
"OOOOOOOOOOOOOOO@XOOOOOOOOOOOOOOOOOOOOOOOOOOOOOO@XOOOOOOOOOOOOOO ",
"OOOOOOOOOOOOOOO@oOOOOOOOOOOOOOOOOOOOOOOOOOOOOOO@oOOOOOOOOOOOOOO ",
"OOOOOOOOOOOOOOO@XOOOOOOOOOOOOOOOOOOOOOOOOOOOOOO@XOOOOOOOOOOOOOO ",
"OOOOOOOOOOOOOOO+XOOOOOOOOOOOOOOOOOOOOOOOOOOOOOO+XOOOOOOOOOOOOOO ",
"OOOOOOOOOOOOOOO+XOOOOOOOOOOOOOOOOOOOOOOOOOOOOOO+XOOOOOOOOOOOOOO ",
"OOOOOOOOOOOOOOO+oOOOOOOOOOOOOOOOOOOOOOOOOOOOOOO+oOOOOOOOOOOOOOO ",
"OOOOOOOOOOOOOOOOXOOOOOOOOOOOOOOOOOOOOOOOOOOOOOOOXOOOOOOOOOOOOOO ",
"OOOOOOOOOOOOOOOoXoOOOOOOOOOOOOOOOOOOOOOOOOOOOOOoXoOOOOOOOOOOOOO ",
"OOOOOOOOOOOOOooX.XoOOOOOOOOOOOOOOOOOOOOOOOOOOooX.XoOOOOOOOOOOOO ",
"OOOO.oOOOOoXXX.....XooOOooXX.....XXo.oooXXoXXX.....XooOOooXX... ",
"OOOOO+OOO+++@OO@@++@@@++OOO@oX.XoOOOO+++O+++@@@@@++@@@+++@@@oX. ",
"OOOOOOOOOOOOOOOOOOOOOOOOOOOO+o.oOOOOOOOOOOOOOOOOOOOOOOOOOOOO+o. ",
"OOOOOOOOOOOOOOOOOOOOOOOOOOOOO@XOOOOOOOOOOOOOOOOOOOOOOOOOOOOOO@X ",
"OOOOOOOOOOOOOOOOOOOOOOOOOOOOO@XOOOOOOOOOOOOOOOOOOOOOOOOOOOOOO@X ",
"OOOOOOOOOOOOOOOOOOOOOOOOOOOOO+oOOOOOOOOOOOOOOOOOOOOOOOOOOOOOO+o ",
"OOOOOOOOOOOOOOOOOOOOOOOOOOOOOOoOOOOOOOOOOOOOOOOOOOOOOOOOOOOOOOo ",
"OOOOOOOOOOOOOOOOOOOOOOOOOOOOOOooOOOOOOOOOOOOOOOOOOOOOOOOOOOOO@o ",
"OOOOOOOOOOOOOOOOOOOOOOOOOOOOOOOoOOOOOOOOOOOOOOOOOOOOOOOOOOOOO@O ",
"OOOOOOOOOOOOOOOOOOOOOOOOOOOOOOXoOOOOOOOOOOOOOOOOOOOOOOOOOOOOO@X ",
"OOOOOOOOOOOOOOOOOOOOOOOOOOOOO+oOOOOOOOOOOOOOOOOOOOOOOOOOOOOOO+o ",
"OOOOOOOOOOOOOOOOOOOOOOOOOOOOO+oOOOOOOOOOOOOOOOOOOOOOOOOOOOOOO+o ",
"OOOOOOOOOOOOOOOOOOOOOOOOOOOOOOXOOOOOOOOOOOOOOOOOOOOOOOOOOOOOOOX ",
"OOOOOOOOOOOOOOOOOOOOOOOOOOOOOoXoOOOOOOOOOOOOOOOOOOOOOOOOOOOOOoX ",
"OOOOOOOOOOOOOOOOOOOOOOOOOOOOOo.oOOOOOOOOOOOOOOOOOOOOOOOOOOOOOo. ",
"oOOOOOOOOOOOOOOOOOOOOOOOOOOOoX.XoOOOOOOOOOOOOOOOOOOOOOOOOOOOoX. ",
"Xo.XXXo..oXOOOOOOooXX...oXX.....Xo.XXXo..oXX....oooXX...oXX.... ",
"O+++@@@O++@@OOOO.XoooOO+++@@@+@OO+++@@@O++@@+ooX.XoooOO+++@@@+@ ",
"OOOOOOOOOOOOO+@o.oOOOOOOOOOOOOOOOOOOOOOOOOOOO+@o.oOOOOOOOOOOOOO ",
"OOOOOOOOOOOOOOO@XOOOOOOOOOOOOOOOOOOOOOOOOOOOOOO@XOOOOOOOOOOOOOO ",
"OOOOOOOOOOOOOOO@XOOOOOOOOOOOOOOOOOOOOOOOOOOOOOO@XOOOOOOOOOOOOOO ",
"OOOOOOOOOOOOOOO+oOOOOOOOOOOOOOOOOOOOOOOOOOOOOOO+oOOOOOOOOOOOOOO ",
"OOOOOOOOOOOOOOO+oOOOOOOOOOOOOOOOOOOOOOOOOOOOOOO+oOOOOOOOOOOOOOO ",
"OOOOOOOOOOOOOOO@XOOOOOOOOOOOOOOOOOOOOOOOOOOOOOO@XOOOOOOOOOOOOOO ",
"OOOOOOOOOOOOOOO@oOOOOOOOOOOOOOOOOOOOOOOOOOOOOOO@oOOOOOOOOOOOOOO ",
"OOOOOOOOOOOOOOO@XOOOOOOOOOOOOOOOOOOOOOOOOOOOOOO@XOOOOOOOOOOOOOO ",
"OOOOOOOOOOOOOOO+XOOOOOOOOOOOOOOOOOOOOOOOOOOOOOOOXOOOOOOOOOOOOOO ",
"OOOOOOOOOOOOOOO+XOOOOOOOOOOOOOOOOOOOOOOOOOOOOOOOXOOOOOOOOOOOOOO ",
"OOOOOOOOOOOOOOO+OOOOOOOOOOOOOOOOOOOOOOOOOOOOOOOOOOOOOOOOOOOOOOO ",
"OOOOOOOOOOOOOOOOOOOOOOOOOOOOOOOOOOOOOOOOOOOOOOOOOOOOOOOOOOOOOOO ",
"OOOOOOOOOOOOOOOoOOOOOOOOOOOOOOOOOOOOOOOOOOOOOOOOOOOOOOOOOOOOOOO ",
"OOOOOOOOOOOOOooX.XoOOOOOOOOOOOOOOOOOOOOOOOOOOooOOOOOOOOOOOOOOOO ",
".XXo.oooXXoXXX.....XoOOOOOOOOOOOOOOOOoooXXoXXX..OOOXooOOooXX... ",
"oOOOO+++O+++@@@@@++@@OOOOOOOOOOOOOOOO+++O+++@@@@@OOO@@+++@@@oX. ",
"OOOOOOOOOOOOOOOOOOOOOOOOOOOOOOOOOOOOOOOOOOOOOOOOOOOOOOOOOOOO+o. ",
"OOOOOOOOOOOOOOOOOOOOOOOOOOOOOOOOOOOOOOOOOOOOOOOOOOOOOOOOOOOOO@X ",
"OOOOOOOOOOOOOOOOOOOOOOOOOOOOO@XOOOOOOOOOOOOOOOOOOOOOOOOOOOOOO@X ",
"OOOOOOOOOOOOOOOOOOOOOOOOOOOOO+oOOOOOOOOOOOOOOOOOOOOOOOOOOOOOO+o ",
"OOOOOOOOOOOOOOOOOOOOOOOOOOOOOOoOOOOOOOOOOOOOOOOOOOOOOOOOOOOOOOo ",
"OOOOOOOOOOOOOOOOOOOOOOOOOOOOO@ooOOOOOOOOOOOOOOOOOOOOOOOOOOOOO@o ",
"OOOOOOOOOOOOOOOOOOOOOOOOOOOOO@OoOOOOOOOOOOOOOOOOOOOOOOOOOOOOO@O ",
"OOOOOOOOOOOOOOOOOOOOOOOOOOOOO@XoOOOOOOOOOOOOOOOOOOOOOOOOOOOOO@X ",
"OOOOOOOOOOOOOOOOOOOOOOOOOOOOO+oOOOOOOOOOOOOOOOOOOOOOOOOOOOOOO+o ",
"OOOOOOOOOOOOOOOOOOOOOOOOOOOOO+oOOOOOOOOOOOOOOOOOOOOOOOOOOOOOO+o ",
"OOOOOOOOOOOOOOOOOOOOOOOOOOOOOOXOOOOOOOOOOOOOOOOOOOOOOOOOOOOOOOX ",
"OOOOOOOOOOOOOOOOOOOOOOOOOOOOOoXoOOOOOOOOOOOOOOOOOOOOOOOOOOOOOoX ",
"OOOOOOOOOOOOOOOOOOOOOOOOOOOOOo.oOOOOOOOOOOOOOOOOOOOOOOOOOOOOOo. ",
"oOOOOOOOOOOOOOOOOOOOOOOOOOOOoX.XoOOOOOOOOOOOOOOOOOOOOOOOOOOOoX. ",
"Xo.XXXo..oXX....oooXX...oXX.....Xo.XXXo..oXOOOOOOOOOOO..oXX.... ",
"                                                                "
};
