/* XPM */
static char *aed649584dca4a14a3ee2ff867ad488d[] = {
/* columns rows colors chars-per-pixel */
"64 64 15 1 ",
"  c black",
". c #0C0000",
"X c #0F0000",
"o c #120000",
"O c #170000",
"+ c #260D02",
"@ c #2F1002",
"# c #321A02",
"$ c #331A02",
"% c #3C1F03",
"& c #3F2003",
"* c #592611",
"= c #6F3015",
"- c #7F4D10",
"; c #9F6014",
/* pixels */
"$***---$**--*++oXo+++$$***---*-$$***---$**--*++X.o+++$$***---*- ",
"%&&&&&&&&&&&&=;@X@&&&&&&&&&&&&&&&&&&&&&&&&&&&=;@X@&&&&&&&&&&&&& ",
"&&&&&&&&&&&&&&&;O&&&&&&&&&&&&&&&&&&&&&&&&&&&&&&;O&&&&&&&&&&&&&& ",
"&&&&&&&&&&&&&&&;O&&&&&&&&&&&&&&&&&&&&&&&&&&&&&&;O&&&&&&&&&&&&&& ",
"&&&&&&&&&&&&&&&=@&&&&&&&&&&&&&&&&&&&&&&&&&&&&&&=@&&&&&&&&&&&&&& ",
"&&&&&&&&&&&&&&&=@&&&&&&&&&&&&&&&&&&&&&&&&&&&&&&=@&&&&&&&&&&&&&& ",
"&&&&&&&&&&&&&&&;O&&&&&&&&&&&&&&&&&&&&&&&&&&&&&&;O&&&&&&&&&&&&&& ",
"&&&&&&&&&&&&&&&;@&&&&&&&&&&&&&&&&&&&&&&&&&&&&&&;@&&&&&&&&&&&&&& ",
"&&&&&&&&&&&&&&&;O&&&&&&&&&&&&&&&&&&&&&&&&&&&&&&;O&&&&&&&&&&&&&& ",
"&&&&&&&&&&&&&&&=O&&&&&&&&&&&&&&&&&&&&&&&&&&&&&&=O&&&&&&&&&&&&&& ",
"&&&&&&&&&&&&&&&=O&&&&&&&&&&&&&&&&&&&&&&&&&&&&&&=O&&&&&&&&&&&&&& ",
"&&&&&&&&&&&&&&&=@&&&&&&&&&&&&&&&&&&&&&&&&&&&&&&=@&&&&&&&&&&&&&& ",
"&&&&&&&&&&&&&&&&O&&&&&&&&&&&&&&&&&&&&&&&&&&&&&&&O&&&&&&&&&&&&&& ",
"&&&&&&&&&&&&&&&@O@&&&&&&&&&&&&&&&&&&&&&&&&&&&&&@O@&&&&&&&&&&&&& ",
"&&&&&&&&&&&&&@@OXO@&&&&&&&&&&&&&&&&&&&&&&&&&&@@OXO@&&&&&&&&&&&& ",
"XOO@X@@@OO@OOOXXXXXO@@&&@@OOXXXXXOO@X@@@OO@OOOXXXXXO@@&&@@OOXXX ",
"@&&&&===&===;;;;;==;;;===;;;@OXO@&&&&===&===;;;;;==;;;===;;;@OX ",
"&&&&&&&&&&&&&&&&&&&&&&&&&&&&=@X@&&&&&&&&&&&&&&&&&&&&&&&&&&&&=@X ",
"&&&&&&&&&&&&&&&&&&&&&&&&&&&&&;O&&&&&&&&&&&&&&&&&&&&&&&&&&&&&&;O ",
"&&&&&&&&&&&&&&&&&&&&&&&&&&&&&;O&&&&&&&&&&&&&&&&&&&&&&&&&&&&&&;O ",
"&&&&&&&&&&&&&&&&&&&&&&&&&&&&&=@&&&&&&&&&&&&&&&&&&&&&&&&&&&&&&=@ ",
"&&&&&&&&&&&&&&&&&&&&&&&&&&&&&&@&&&&&&&&&&&&&&&&&&&&&&&&&&&&&&&@ ",
"&&&&&&&&&&&&&&&&&&&&&&&&&&&&&;@@&&&&&&&&&&&&&&&&&&&&&&&&&&&&&;@ ",
"&&&&&&&&&&&&&&&&&&&&&&&&&&&&&;&@&&&&&&&&&&&&&&&&&&&&&&&&&&&&&;& ",
"&&&&&&&&&&&&&&&&&&&&&&&&&&&&&;O@&&&&&&&&&&&&&&&&&&&&&&&&&&&&&;O ",
"&&&&&&&&&&&&&&&&&&&&&&&&&&&&&=@&&&&&&&&&&&&&&&&&&&&&&&&&&&&&&=@ ",
"&&&&&&&&&&&&&&&&&&&&&&&&&&&&&=@&&&&&&&&&&&&&&&&&&&&&&&&&&&&&&=@ ",
"&&&&&&&&&&&&&&&&&&&&&&&&&&&&&&O&&&&&&&&&&&&&&&&&&&&&&&&&&&&&&&O ",
"&&&&&&&&&&&&&&&&&&&&&&&&&&&&&@O@&&&&&&&&&&&&&&&&&&&&&&&&&&&&&@O ",
"&&&&&&&&&&&&&&&&&&&&&&&&&&&&&@X@&&&&&&&&&&&&&&&&&&&&&&&&&&&&&@X ",
"@&&&&&&&&&&&&&&&&&&&&&&&&&&&@OXO@&&&&&&&&&&&&&&&&&&&&&&&&&&&@OX ",
"O@XOOO@XX@OOXXXX@@@OOXXX@OOXXXXXO@XOOO@XX@OOXXXX@@@OOXXX@OOXXXX ",
"&===;;;&==;;=@@OXO@@@&&===;;;=;&&===;;;&==;;=@@OXO@@@&&===;;;=; ",
"&&&&&&&&&&&&&=;@X@&&&&&&&&&&&&&&&&&&&&&&&&&&&=;@X@&&&&&&&&&&&&& ",
"&&&&&&&&&&&&&&&;O&&&&&&&&&&&&&&&&&&&&&&&&&&&&&&;O&&&&&&&&&&&&&& ",
"&&&&&&&&&&&&&&&;O&&&&&&&&&&&&&&&&&&&&&&&&&&&&&&;O&&&&&&&&&&&&&& ",
"&&&&&&&&&&&&&&&=@&&&&&&&&&&&&&&&&&&&&&&&&&&&&&&=@&&&&&&&&&&&&&& ",
"&&&&&&&&&&&&&&&=@&&&&&&&&&&&&&&&&&&&&&&&&&&&&&&=@&&&&&&&&&&&&&& ",
"&&&&&&&&&&&&&&&;O&&&&&&&&&&&&&&&&&&&&&&&&&&&&&&;O&&&&&&&&&&&&&& ",
"&&&&&&&&&&&&&&&;@&&&&&&&&&&&&&&&&&&&&&&&&&&&&&&;@&&&&&&&&&&&&&& ",
"&&&&&&&&&&&&&&&;O&&&&&&&&&&&&&&&&&&&&&&&&&&&&&&;O&&&&&&&&&&&&&& ",
"&&&&&&&&&&&&&&&=O&&&&&&&&&&&&&&&&&&&&&&&&&&&&&&=O&&&&&&&&&&&&&& ",
"&&&&&&&&&&&&&&&=O&&&&&&&&&&&&&&&&&&&&&&&&&&&&&&=O&&&&&&&&&&&&&& ",
"&&&&&&&&&&&&&&&=@&&&&&&&&&&&&&&&&&&&&&&&&&&&&&&=@&&&&&&&&&&&&&& ",
"&&&&&&&&&&&&&&&&O&&&&&&&&&&&&&&&&&&&&&&&&&&&&&&&O&&&&&&&&&&&&&& ",
"&&&&&&&&&&&&&&&@O@&&&&&&&&&&&&&&&&&&&&&&&&&&&&&@O@&&&&&&&&&&&&& ",
"&&&&&&&&&&&&&@@OXO@&&&&&&&&&&&&&&&&&&&&&&&&&&@@OXO@&&&&&&&&&&&& ",
"XOO@X@@@OO@OOOXXXXXO@@&&@@OOXXXXXOO@X@@@OO@OOOXXXXXO@@&&@@OOXXX ",
"@&&&&===&===;;;;;==;;;===;;;@OXO@&&&&===&===;;;;;==;;;===;;;@OX ",
"&&&&&&&&&&&&&&&&&&&&&&&&&&&&=@X@&&&&&&&&&&&&&&&&&&&&&&&&&&&&=@X ",
"&&&&&&&&&&&&&&&&&&&&&&&&&&&&&;O&&&&&&&&&&&&&&&&&&&&&&&&&&&&&&;O ",
"&&&&&&&&&&&&&&&&&&&&&&&&&&&&&;O&&&&&&&&&&&&&&&&&&&&&&&&&&&&&&;O ",
"&&&&&&&&&&&&&&&&&&&&&&&&&&&&&=@&&&&&&&&&&&&&&&&&&&&&&&&&&&&&&=@ ",
"&&&&&&&&&&&&&&&&&&&&&&&&&&&&&&@&&&&&&&&&&&&&&&&&&&&&&&&&&&&&&&@ ",
"&&&&&&&&&&&&&&&&&&&&&&&&&&&&&;@@&&&&&&&&&&&&&&&&&&&&&&&&&&&&&;@ ",
"&&&&&&&&&&&&&&&&&&&&&&&&&&&&&;&@&&&&&&&&&&&&&&&&&&&&&&&&&&&&&;& ",
"&&&&&&&&&&&&&&&&&&&&&&&&&&&&&;O@&&&&&&&&&&&&&&&&&&&&&&&&&&&&&;O ",
"&&&&&&&&&&&&&&&&&&&&&&&&&&&&&=@&&&&&&&&&&&&&&&&&&&&&&&&&&&&&&=@ ",
"&&&&&&&&&&&&&&&&&&&&&&&&&&&&&=@&&&&&&&&&&&&&&&&&&&&&&&&&&&&&&=@ ",
"&&&&&&&&&&&&&&&&&&&&&&&&&&&&&&O&&&&&&&&&&&&&&&&&&&&&&&&&&&&&&&O ",
"&&&&&&&&&&&&&&&&&&&&&&&&&&&&&@O@&&&&&&&&&&&&&&&&&&&&&&&&&&&&&@O ",
"&&&&&&&&&&&&&&&&&&&&&&&&&&&&&@X@&&&&&&&&&&&&&&&&&&&&&&&&&&&&&@X ",
"@&&&&&&&&&&&&&&&&&&&&&&&&&&&@OXO@&&&&&&&&&&&&&&&&&&&&&&&&&&&@OX ",
"O@XOOO@XX@OOXXXX@@@OOXXX@OOXXXXXO@XOOO@XX@OOXXXX@@@OOXXX@OOXXXX "
};
