/* XPM */
static char *_c1c5d176e70443d8e576161631a1356[] = {
/* columns rows colors chars-per-pixel */
"64 64 7 1 ",
"  c #100000",
". c #180000",
"X c #2F1002",
"o c #3F2003",
"O c #6F3015",
"+ c #9F6014",
"@ c #CF8F55",
/* pixels */
"ooOOO+++O++@@+oX. .XXXooOOO+++O+ooOOO+++oOO@@+oX. .XXXooOOO+++O+",
"OoooooooOOOOOO++X oOOooooooooOOOoooooooooooOOO+@X Xooooooooooooo",
"OOOoooooOOOOOOOO@XOOOooooooooOOOoooooooooooOOOOO+.oooooooooooooo",
"OOOOoooooooOOOOO@XOOOOooooooooOOoooooooooooooOOO+.ooooooooooOOOO",
"OOOOoooooooOOOOO+oOOOOoOOOoooooooooooooooooooOooOXooooooooooOOOO",
"OOOOOooooooOOOOO+oOOOOOOOOOOooooooooooooooooooooOXooooooooooOOOO",
"OOOOOooooooOOOOO@XOOOOOOOOOOOooooooooooooooooooo+.oooooooooooOoo",
"OOOOooooooooOOOo+ooOOOOOOOOOOOOOoooooooooooooooo+Xoooooooooooooo",
"OOOOOooooooooooo+.ooOOooOOOOOOOOoooooOOOoooooooo+.oooooooooooooo",
"OOOOOooooOOOooooO.ooooooOOOOOOOOOooooOOOOoooooooO.ooooooOooOOOOo",
"ooOOOooooOOOOoooO.oooooooOOOOOOOOOoooOOOOoooooooO.ooooooOOoOOOOo",
"oooooooooOOOOOooOXooooooooOOOOOOOOooooooooooooooOXooooooOOoOOOOo",
"ooooooooooOOOOOoo.ooooooooOOOOOOOOooooooooooooooo.oooooooooOOOOo",
"ooooooooooOOOOOoX.XoooooooOOOOOOOOOoooooooooooooX.XoooooooOOOOOo",
"oooooooooOOOOOooX .XoooooooOOOOOOOOOOOOoooooooXX. .XooooooOOoooo",
"  ..X XXXXXoXXX..   .XXooXX.X.....XXo.oooX.X...     .XXooXoXX   ",
".XooooOOOO+++@@@@++++++OOO+@@oX.XoOOOO+++O+OO+++++OO+++OOO@@@o. ",
"XooooooooOOOOOOOOOOOOoooooOOO+o.oOOOOOOOOOOOoooooooooooooooOO+X ",
"ooooooooooOOOOOOOOOOOoooooOOOO@XOOOOOOOOOOOOoooooooooooooooOOo+.",
"ooooooooooOOOOooooOOOoooooOOOO@XOOOOOOOOOOOOooooooooooooooooOo+.",
"ooooOOoooooooooooooooooooooOOO+oOOOOOOOOOOOOooooooooooooooooooOX",
"oooOOOooooooooooooooooooooooOOOoOOOOOOOOOOOOOooooooooooooooooooX",
"XooOOOoooooooooooooooooooooooO@ooOOOOOOOOOOOOOoooooooooooooooo+X",
"XOOOOOOOOOOOOOoooooooooooooooO@OoOOOOoOOOOOOOOoooooooooooooooo+o",
"XOOOooOOOOOOOOoooooooooooooooo+XoOOOOooOOOOOOOOooooooooooooooo+.",
"oOOooOOOOOOOOOOoooOOOoooooooooOoOOOOOoooOOOOOOooooooooooooooooOX",
"oooooOOOOOOOOOOOooOOOOooooooooOoOOOOOooooOOOOOoooooooooooooooo+o",
"ooooooOOOOOOOOOOooOOOOooooooooo.OOOOOooooooooooooooooooooooooOOX",
"XoooooOOOOOOOOOOoOOOOOOOooooooX.oOOOOOooooooooooooooooooooooOOoX",
"XoooooooOOOOOOOOOOOOOOOOOOoOooX XOOOOoooooooooooooooooooooooOOo.",
".XoooooooOOOoOOOOOOOOOOOOOOOOoX .XooooooooooooooooooooooooooOoX.",
" .X ...X  X......oXXXX...oXX...  .X ...X  X..    XXX..   X......",
"ooOOO+++oOO++OXX. .XXXooO++@@@++ooOOO+++oOO++OXX. .XXXooOOO+++O+",
"ooooooooooooooO+X oOOooooooOOOooooooooooooooooO+X Xooooooooooooo",
"oooooooooooooooo+XOOOooooooooooooooooooooooooooo+.ooooooooOOoooo",
"ooooooooooooOooo+XOOOOoooooooooooooooooooooooooo+.ooooooooOOOooo",
"OooooooooooOOOOOOoOOOOOoooooooooooooooooooooooooOXooooooooOOOooo",
"OoooooooooOOOOOO+XoOOOOOooooooooooooooooooooooooOXoooooooooooooo",
"OOooooooooOOOOOO+.oOOOOOOooooooooooooooooooooooo+.oooooooooooooo",
"OOOOOOoooooOOOOo+XoOOOOOOOoooooooooooooooooooooo+Xoooooooooooooo",
"OOOOOoooooooOOoO@XOOOOOOOOOooooOOOoooooooooooooo+.oooooooooooooo",
"ooOOOooooooooooO+XOOOOOOOOOOOooOOOOOooooooooooooO.oooooooooooooo",
"oooooooooooooooO+XOOOOOOOOOOOoOOOOOOOoooooooooooO.oooooooooooooo",
"oooooooooooooooO+oOOOOOOOOOOOoOOOOOOOoooooooooooOXoooooooooooooo",
"oooooooooooooooOOXOOOOOOOOOOooOOOOOOOoooooooooooo.oooooooooooooo",
"oooooooooooooooooXoOOOOOOooooOOOOOOOOoooooooooooX.Xooooooooooooo",
"ooooooooooooooXX. XoOOOoooOOOOOOOOOOOoooooooooXX. .Xoooooooooooo",
"  ..X XXX..X...     .XXooXoXX.....XXo XXX..X...     .XXooXX..   ",
".XooooOOOoOOO+++++O+@@+OOO@@@XX.XoOOooOOOoOOO+++++OO+++OOO+++X. ",
"XooooooooooooooooooOOOoooooooOX XoOoooooooooooOOOooooooooooooOX ",
"oooooooooooooooooooooooooooooo+.ooooooooooooooOOOOOOoooooooooo+.",
"oooooooooooooooooooooooooooooo+.ooooooooooooooOOOOOOoooooooooo+.",
"ooooooooooooooooooooooooooooooOXoooooooooooooooOOOOOooooooooooOX",
"oooooooooooooooooooooooooooooooXooooooooooooooooOOOOoooooooooooX",
"Xooooooooooooooooooooooooooooo+XXOOooooooooooooooooooooooooooo+X",
"Xooooooooooooooooooooooooooooo+oXOOooooooooooooooooooooooooooo+o",
"Xooooooooooooooooooooooooooooo+.XOOOOooooooooooooooooooooooooo+.",
"ooooooooooooooooooooooooooooooOXOOOOOoooOOOOooooooooooooooooooOX",
"ooooooooooooooooooooooooooooooOXOOOOOOoOOOOOOOOoooooooooooooooOX",
"ooooooooooooooooooooooooooooooo.OOOOOOoOOOOOOOOoooooooooooooooo.",
"XoooooooooooooooooooooooooooooX.XOOOOOoOOOOOOOOoooooooooooooooX.",
"XoooooooooooooooooooooooooooooX XoOOOoOOOOOOOOOOOoooooooooooooX ",
".XoooooooooooooooooooooooooooX. .XoooOOOOOOOOOOOOooooooooooooX. ",
" .X ...X  X..    XXX..   X..     .X XXXo..oXX....ooX..   X..    "
};
