/* XPM */
static char *c2503adef3834c19f29732e75d576712[] = {
/* columns rows colors chars-per-pixel */
"64 64 6 1 ",
"  c #100000",
". c #180000",
"X c #2F1002",
"o c #3F2003",
"O c #6F3015",
"+ c #9F6014",
/* pixels */
"ooOOO+++oOO+oooooooooooooOOoooo+ooOOOooooooooooX. .XXXooOOO+++O+",
"ooooooooooooooooooooooooooooooooooooooooooooooo+X Xooooooooooooo",
"oooooooooooooooooooooooooooooooooooooooooooooooo+.oooooooooooooo",
"oooooooooooooooo+.oooooooooooooooooooooooooooooo+.oooooooooooooo",
"ooooooooooooooooOXooooooooooooooooooooooooooooooOXoooooooooooooo",
"ooooooooooooooooOXooooooooooooooooooooooooooooooOXoooooooooooooo",
"oooooooooooooooo+.oooooooooooooooooooooooooooooo+.oooooooooooooo",
"oooooooooooooooo+Xoooooooooooooooooooooooooooooo+Xoooooooooooooo",
"oooooooooooooooo+.oooooooooooooooooooooooooooooo+.oooooooooooooo",
"ooooooooooooooooO.ooooooooooooooooooooooooooooooO.oooooooooooooo",
"ooooooooooooooooO.ooooooooooooooooooooooooooooooO.oooooooooooooo",
"ooooooooooooooooOXooooooooooooooooooooooooooooooOXoooooooooooooo",
"ooooooooooooooooo.ooooooooooooooooooooooooooooooo.oooooooooooooo",
"ooooooooooooooooX.XoooooooooooooooooooooooooooooX.Xooooooooooooo",
"ooooooooooooooXooo.XooooooooooooooooooooooooooXX. .Xoooooooooooo",
"  ..X XXX..X.ooooo  .XXooXX..     ..X XXX..X...     .ooooXX..   ",
".XooooOOOoOoooooooOO+++OOO+o+X. .XooooOOOoOOo+++++OO+oooOO+++X. ",
"XooooooooooooooooooooooooooooOXoXooooooooooooooooooooooooooooOX ",
"oooooooooooooooooooooooooooooo+ooooooooooooooooooooooooooooooo+.",
"oooooooooooooooooooooooooooooooooooooooooooooooooooooooooooooo+.",
"ooooooooooooooooooooooooooooooooooooooooooooooooooooooooooooooOX",
"oooooooooooooooooooooooooooooooooooooooooooooooooooooooooooooooo",
"Xooooooooooooooooooooooooooooo+XXooooooooooooooooooooooooooooooo",
"Xooooooooooooooooooooooooooooooooooooooooooooooooooooooooooooooo",
"Xooooooooooooooooooooooooooooooooooooooooooooooooooooooooooooooo",
"ooooooooooooooooooooooooooooooOooooooooooooooooooooooooooooooooo",
"ooooooooooooooooooooooooooooooOooooooooooooooooooooooooooooooooo",
"ooooooooooooooooooooooooooooooo.oooooooooooooooooooooooooooooooo",
"XoooooooooooooooooooooooooooooX.ooooooooooooooooooooooooooooooXo",
"XoooooooooooooooooooooooooooooX ooooooooooooooooooooooooooooooX ",
".XoooooooooooooooooooooooooooX. .ooooooooooooooooooooooooooooX. ",
" .X ...X  X..    XXX..   X..     .X oooo  Xoooo  ooooooooooo    ",
"oooOO+++oOO++OXX. .XXXooOOO+++O+ooOoooooooOooooX.oooooooooooooO+",
"ooooooooooooooO+ooXoooooooooooooooooooooooooooo+Xooooooooooooooo",
"oooooooooooooooooooooooooooooooooooooooooooooooo+ooooooooooooooo",
"oooooooooooooooooooooooooooooooooooooooooooooooooooooooooooooooo",
"ooooooooooooooooOXoooooooooooooooooooooooooooooooooooooooooooooo",
"ooooooooooooooooOXoooooooooooooooooooooooooooooooooooooooooooooo",
"oooooooooooooooo+.oooooooooooooooooooooooooooooooooooooooooooooo",
"oooooooooooooooo+Xoooooooooooooooooooooooooooooooooooooooooooooo",
"oooooooooooooooo+.oooooooooooooooooooooooooooooooooooooooooooooo",
"ooooooooooooooooO.oooooooooooooooooooooooooooooooooooooooooooooo",
"ooooooooooooooooO.oooooooooooooooooooooooooooooooooooooooooooooo",
"ooooooooooooooooOXoooooooooooooooooooooooooooooooXoooooooooooooo",
"ooooooooooooooooo.ooooooooooooooooooooooooooooooo.oooooooooooooo",
"ooooooooooooooooX.XoooooooooooooooooooooooooooooX.Xooooooooooooo",
"ooooooooooooooXX. .XooooooooooooooooooooooooooXX. .Xoooooooooooo",
"  ..X XXX..X...     .XXooXX..   oo..X XXX..X...     .Xoooooooooo",
".XooooOOOoOOO+++++OO+++OOO+++XooooooooOOOoOOO+++++Oooo+ooooooooo",
"XooooooooooooooooooooooooooooOX oooooooooooooooooooooooooooooooo",
"oooooooooooooooooooooooooooooo+.oooooooooooooooooooooooooooooooo",
"oooooooooooooooooooooooooooooo+.oooooooooooooooooooooooooooooooo",
"ooooooooooooooooooooooooooooooOXoooooooooooooooooooooooooooooooo",
"oooooooooooooooooooooooooooooooXoooooooooooooooooooooooooooooooo",
"oooooooooooooooooooooooooooooo+XXooooooooooooooooooooooooooooooo",
"oooooooooooooooooooooooooooooo+oXooooooooooooooooooooooooooooooo",
"oooooooooooooooooooooooooooooo+.Xooooooooooooooooooooooooooooo+.",
"ooooooooooooooooooooooooooooooOXooooooooooooooooooooooooooooooOX",
"ooooooooooooooooooooooooooooooOXooooooooooooooooooooooooooooooOX",
"ooooooooooooooooooooooooooooooo.ooooooooooooooooooooooooooooooo.",
"XoooooooooooooooooooooooooooooX.XoooooooooooooooooooooooooooooX.",
"XoooooooooooooooooooooooooooooX XoooooooooooooooooooooooooooooX ",
".XoooooooooooooooooooooooooooX. .XoooooooooooooooooooooooooooX. ",
" .X .ooo  X..    XXX..   Xoooo   .Xooo.oooX..    XXX.ooooX..    "
};
