/* XPM */
static char *_535809422884[] = {
/* columns rows colors chars-per-pixel */
"64 64 252 2 ",
"   c #2B0807",
".  c #340303",
"X  c #3C0303",
"o  c #340A03",
"O  c #390809",
"+  c #3C0B0B",
"@  c #3C120C",
"#  c #2F1813",
"$  c #391715",
"%  c #321B1A",
"&  c #3C1D1C",
"*  c #3A2516",
"=  c #3B221C",
"-  c #1F1C27",
";  c #2E1D23",
":  c #3D1F23",
">  c #2F282A",
",  c #3D2324",
"<  c #372825",
"1  c #3D3635",
"2  c #440303",
"3  c #4B0303",
"4  c #450B04",
"5  c #4B0A05",
"6  c #44040B",
"7  c #4C050A",
"8  c #440B0A",
"9  c #4C0B0B",
"0  c #520403",
"q  c #5D0405",
"w  c #520A05",
"e  c #590A06",
"r  c #54040B",
"t  c #5C050A",
"y  c #530B0B",
"u  c #5C0B0D",
"i  c #44130C",
"p  c #4C120D",
"a  c #53120D",
"s  c #5C120C",
"d  c #5A180E",
"f  c #480B13",
"g  c #540C13",
"h  c #5B0D12",
"j  c #4B1413",
"k  c #481917",
"l  c #4C1A16",
"z  c #441C1B",
"x  c #531513",
"c  c #5C1414",
"v  c #561816",
"b  c #5B1A14",
"n  c #55141A",
"m  c #531C1A",
"M  c #5B1C1C",
"N  c #640305",
"B  c #6C0306",
"V  c #670B06",
"C  c #64040B",
"Z  c #6C050B",
"A  c #640B0C",
"S  c #6C0B0D",
"D  c #740307",
"F  c #7A0307",
"G  c #750907",
"H  c #74040B",
"J  c #7D040A",
"K  c #730B0D",
"L  c #7C0A0C",
"P  c #65130E",
"I  c #72130F",
"U  c #7B120E",
"Y  c #6C0611",
"T  c #660813",
"R  c #640D13",
"E  c #6C0D11",
"W  c #7C0612",
"Q  c #740C12",
"!  c #770A14",
"~  c #7D0C12",
"^  c #621314",
"/  c #6C1214",
"(  c #631914",
")  c #63141A",
"_  c #6D121B",
"`  c #641C1A",
"'  c #6C1C19",
"]  c #741314",
"[  c #7C1314",
"{  c #771A16",
"}  c #73141A",
"|  c #7C151A",
" . c #731C1C",
".. c #7D1B1C",
"X. c #46271A",
"o. c #44241C",
"O. c #4A241D",
"+. c #53231C",
"@. c #5C241C",
"#. c #69231D",
"$. c #74221C",
"%. c #7D271B",
"&. c #7C221D",
"*. c #451E22",
"=. c #581D22",
"-. c #651B22",
";. c #761A24",
":. c #7C1C23",
">. c #432424",
",. c #482827",
"<. c #542423",
"1. c #592624",
"2. c #542C2C",
"3. c #592A2B",
"4. c #45342D",
"5. c #4D312E",
"6. c #53322C",
"7. c #5A332B",
"8. c #422231",
"9. c #592F31",
"0. c #463735",
"q. c #5C3334",
"w. c #573837",
"e. c #5E3B34",
"r. c #642324",
"t. c #6B2323",
"y. c #672B29",
"u. c #742323",
"i. c #7C2425",
"p. c #752925",
"a. c #7B2925",
"s. c #75252B",
"d. c #7C242A",
"f. c #742B2C",
"g. c #7D2C2A",
"h. c #63342A",
"j. c #6D332C",
"k. c #73342B",
"l. c #7D312C",
"z. c #662D30",
"x. c #7A2C31",
"c. c #643433",
"v. c #6C3332",
"b. c #633B35",
"n. c #6D3A35",
"m. c #67373B",
"M. c #643C3B",
"N. c #6D3C3A",
"B. c #743432",
"V. c #7C3433",
"C. c #733C34",
"Z. c #733C3C",
"A. c #7A3838",
"S. c #5B432F",
"D. c #584438",
"F. c #5B453C",
"G. c #64433B",
"H. c #6A453B",
"J. c #77433C",
"K. c #343C47",
"L. c #4F3D42",
"P. c #6A3E41",
"I. c #753E42",
"U. c #38414B",
"Y. c #4A4747",
"T. c #4C4444",
"R. c #564647",
"E. c #544B4B",
"W. c #4E554D",
"Q. c #53534D",
"!. c #5B514B",
"~. c #494D52",
"^. c #564C52",
"/. c #4D5253",
"(. c #535353",
"). c #595756",
"_. c #5B5B59",
"`. c #664546",
"'. c #734443",
"]. c #7A4645",
"[. c #77504F",
"{. c #515661",
"}. c #84040B",
"|. c #8B050B",
" X c #830A0D",
".X c #8B0A0E",
"XX c #92050D",
"oX c #9A050F",
"OX c #92090E",
"+X c #82110E",
"@X c #840511",
"#X c #8B0612",
"$X c #840C12",
"%X c #8C0B12",
"&X c #840E1A",
"*X c #8C0C19",
"=X c #930612",
"-X c #9B0612",
";X c #930C13",
":X c #9B0B14",
">X c #9A0D19",
",X c #841114",
"<X c #8B1214",
"1X c #841A16",
"2X c #82141B",
"3X c #8C131B",
"4X c #831B1D",
"5X c #891C1C",
"6X c #941216",
"7X c #94131A",
"8X c #971518",
"9X c #9B131A",
"0X c #A30B16",
"qX c #A31A1C",
"wX c #83221D",
"eX c #89221E",
"rX c #90221E",
"tX c #831D22",
"yX c #8B1E22",
"uX c #881C28",
"iX c #941B24",
"pX c #842324",
"aX c #8D2324",
"sX c #852A26",
"dX c #84242A",
"fX c #8B232A",
"gX c #832C2C",
"hX c #8A2C2C",
"jX c #922324",
"kX c #942629",
"lX c #83322D",
"zX c #8B322B",
"xX c #832D32",
"cX c #872B36",
"vX c #8D2D32",
"bX c #942B35",
"nX c #833332",
"mX c #8C3435",
"MX c #843B36",
"NX c #883738",
"BX c #833B3C",
"VX c #8C3C39",
"CX c #973535",
"ZX c #933B3C",
"AX c #84433B",
"SX c #8D413D",
"DX c #9D433F",
"FX c #8B3D42",
"GX c #953F42",
"HX c #884344",
"JX c #974546",
"KX c #A24C4D",
/* pixels */
"5.5.5.5.5.2.2.7.2.2.6.5.5.0.1 0.5.6.6.6.2.2.6.6.5.5.5.5.5.6.2.2.2.2.5.5.0.1 1 1 5.2.3.3.3.3.2.2.2.2.2.3.3.7.,.6.6.6.2.2.2.5.4.1 ",
"b.n.C.A.l.lXzXlXmXl.V.H.b.F.!.F.j.l.a.lXl.lXl.l.MXMXMXAXSXBXSXMXnXV.B.N.M.F.F.G.J.JXVXSXSXMXSXV.A.BXg.' $.$.k.k.AXAXl.lXf.].6.D.",
"n.g.g.pXaX5X7X8XjXpXpXp.7.6.D.H.sXrX5XrX5XrXeXrX1XeXwXeXaXeXaX5X5XpXsXp.y.3.S.n.gXkXjXjXjXaXkXpXwXhXaX5X5XeXwX%.%.eXeXrXwXl.@.6.",
"B.dX4X3X7X>X9X0X0X6X2X} a X.D.[.rXqXOX8X.X;X.X6X X<X,X<X<X X7X;X.X7XtX} h @.z.V.aX9X6X;X6X8XiX7X$X8X6X:X8X8X+X+XF +X6XOX<X[ P +.",
"x.tX2X#X;X:X0X0X:X=X$XA 4 k F.].jX0XXX:XXX|.|.;X|..X|.%X%X|.;X=X|.;X3XT r =.m.NXiX>X=XXXXX=X=X*X}.%XXX-XoX;X X+X}.}.>X=X%XW y l ",
"A.tX!  X#X=XoXoX-X@XW t 2 z F.'.aX0XXX:XXXoX|.;X}..X}.%X|.}.#X%X}.*X[ r 7 <.c.Z.yX%X.X|.|.#X}.@XJ .X|.-XXX.XG +X+X}.:X=X*XZ 5 z ",
"A...Q L  X}.|.XX|.J K t 2 >.R.'.5X:X=X:XXX;X|.%X}. XJ #X#XJ #X#X}. XQ r + *.5.b.wX.X.X}.}.%XJ $XD $X}.9X.X<XD U U L #X#X$XT O * ",
"V.tXQ K J J }..XJ H S u 6 <.L.J.2X6X.X|.}.%X X XL J H $X~ F W $XJ L E 9 + : 4.e.sX X.X}. X.XF $XB [ }.9X|. XN I S F @X*X! R o * ",
"A.u./ S S B B K B Z T g O *.L.I._ | W W N Q G B H H N E E N Y H B V u j @ & 0.G.p.Z G B D K N E q E B &XB Z e ( q N H | S h . , ",
"m.M 9 9 2 2 X 2 2 2 X O . *.5.`.=.7 7 7 4 2 0 0 C N r 3 2 2 3 0 3 2 X X o z 2.b.m x 5 w u u u u y 9 r r r r 2 p 3 2 5 w 2 . + =.",
"I.r.M M M M 1.M n n g =.f 8.9.L.q.<.=.m l l d e q T c n l j 5 7 v m v l m 1.h.n.+.x x x b b ^ ^ M M M n n j o i x a v +.l n =.=.",
"HXd.u.i.p.p.g.V.d.d.;.;.;.s.9.P.`.m.m.v.j.k.p.$...:.g.V.B.B.p.i.l.x.V.B.k.C.C.C.AXAXHXSXSXVXDXKXVXNXFXB.c.q.7.7.l.lXlXl.l.MXA.3.",
"l.wX4X4X1X..wXwXpXtX2X:.;.;.-.m P.P.A.NXlXsXhXpX5XyXpXgXa.%.pXpXtXi.i...$.$.$.$.$.I wX{ wXU wXeX1X[ i.#.1.G.H.J.mXjXrXrXwXsXlXy.",
" . X,X<X XJ L G $X~ W L | } ^ 4 q.N.FXvX2X,X,X X#X#X X~ G U +X%X X X X XL L L G +XU +X}.6X X6XOXqX6X4XA 4 X.6.@.jX8XOXoX XL U #.",
"I }..X.X}.}.J F  XJ @XJ $X[ Z 3 =.m.FXiX X}.%X}.;X|.%X%XG |.OX|.oX|.|.|..X.X.X.X<X}..X}.8X|.oXXX0XXX$XV 4 +.H.AXkX0X0X0XOX}.+XI ",
"S |.;X;X|.}.|.}. X}.$XF ,XK S 3 $ 3.FXiX#X=X6X.X=X}.#X@X}.}.OX|.|.|.|.|.}.}.}..X.X}.|.}.6X|.XXXX0X|. Xq . X.e.j.iX:X0XoXXX}.+XV ",
"/ %X*X;X|.|.@X}.#XL &XF ~ H Z 2 & 6.NXuX#X=X%XJ %XJ }.@XF J OX|.|.#X%X}.}.}.J $X XF  X}.%X}.#X|.:X|.,Xq X z w.c.uX>X-X-X|.%X,XV ",
"t 2X@X*XJ #X@X&XJ W W J &X..E 2 = w.JXuX*X#X#X X$X,XH L D [ F J &X$XF $XH W H J H J ~ H $X&XB $XJ  X[ h 6 $ 9.Z.uX*X#X7XJ $X~ R ",
"g / Y ~ H W ! Q Q E S C T R u X 4.D.].:.L D H N Z S N A 0 u N V K Z N K C K Z E C T E N S / q E Q ] _ r . $ w.'.;.! Y ! N A A g ",
"  4 2 3 2 3 3 2 2 2 2 2 X X X o < D.n.p.u N e w e e a p 4 4 4 a w y 0 y 3 w 5 9 3 5 9 3 8 5 2 5 5 2 2 .   & 5.M.1.h r 3 3 2 8 @ ",
"o.+.p x h c b y p p v @.v i i z 4.G.n.a.( #.( d ^ b v +.X.X.+.1.` ( b b a y 5 y a x b v M j 9 4 b c +.m <.9.G.N.B.b b p M l O.>.",
"'.J.f.g.gXdXmXa.l.a.l.l.a.$.$.p.k.C.lXzXwXzX%.%.pXu.t.h.b.b.N.A.nXlXzXgXa. .$.&.i.g.g.nXg.p.p.#.lXl.V.A.A.A.A.l.mXsX%.p.A.v.b.R.",
"].VXdX4XiX5XjX4XaXwX4X4X4X2X4X4XwXwXeXeX1XeXwXU yX..;.M c.'.].V.sXeXaXaXaX4XyXaXaXaXpXaX4X..dX..4X| $.u.;.i.pX[ 5X1X1X&.lXt.2.w.",
"MXsX5X$X7X#X9X X<X.X<X%X%X%X8X9X%X.X.X.X+XU +X}.;X&X} 0 1.Z.HXdX3X.X;X}.;X.X;X;X%X%X}.*XJ F 3XJ }.F K K L $X*X.X|.|.J L Q t O , ",
"p.eX6X.X0XXX:X}.}..XOXOXXXXXoXoXoXoX:X|.<XJ  X}.=X*X| 3 M C.FXdX8XoXOX|.OX|.XXXXXXXX|.:X|.}.6X}.OX|.,X$X X.XOXXXoX0X|.<XL t X >.",
"j.$.}.=X0X|. XD }.F %X X.X|.:XOX|.|.XX|..X,X+XF |.@XC 3 v ].JXfX6X|.;X}.8X}.:XoX|.;XXXOX}.6X XF %XF }.F 6XOXOXXX0XXX|.3XN q 9 k ",
"N.i. X=X:X}.L B K D $X X#XJ ;X|.F }.|.}.F K H H $XW N 3 l J.HXtX$X|.J  XL  XXXOX}.%X}.%XF $XG F ,XF +XF 6X}.OX.XOX.X}.2XC r 8 k ",
"H.p.Q J  XD S N 2X! ! H H D L F F  X&X XK K E Y &X! T 2 k '.HXd.,XJ ~ D [ H #X XD B D L D F B B K B ,XB 1XD ,X XJ J B Q h 7 + z ",
"Z.p.E Z E q P A Y C T T T T } ! C Z Y Z C u h t Y Y y O $ b.I.d.} H [ q { q ] S A A A Q E S q t C N / q I q K B C Y N h v f + , ",
"c.r.x w a X 9 3 r r f g f g r 3 0 0 0 3 7 9 7 3 r r 6 O # 6.N.t.u q 3 w 2 9 3 3 i i 9 5 r 3 9 r w 5 3 2 3 5 w w 0 w 3 2 j +   % ",
"'.B.t.M @.p @.h ;._ n n z =.=.-.-.-._ ) ` r.-.M T ) n k X.e.J.V.) R ^ c M n @.l $ @ j 8 y c t.t.` ( w y 5 b b ( ^ c c n 1.k >.>.",
"HXFXVXg.AXp.zXd.fXd.=.P.9.'.JXKXmXcXvXvXNXV.x.dXtX:.d.t.y.j.BXxXhXdXZXi.HXj.HXv.7.9.j.-.g.g.GXGXmXmXa.p.a.l.l.g.zXa.xXx.NXB.Z.q.",
";.tX4X..sX..uX| uX;.1.e.6.N.x.uXfXfXfXfXpXi.:.4X3X5X4X$.' #.tX5X4XtXtX..:.p.t.M S.J.SXa.hXfXvXtXyXyXjX4XwXwXwX{ aX[ pXtXpX .d.1.",
"} <X<X<X<X*X>X>XiXQ X X.D.z.tX3XW  XJ $X~ F #X@X>XOXJ G S U #X%XF #X@XJ W ] / 3 @.C.mXwXW J J J ;X%XJ ,XF +XG  XL  X$X#X$XW L ^ ",
"] %X.XOX;XoX-X=X*XS X X.S.j.tX#X#X=X}..X XJ |.|.:X=X}.F G J |.XX}..X|.|.$XU I 3 h.J.ZXaX#X}.|.}.OXXX|..XOX X}..X|.|.XX|.|.|.}.S ",
"/ |.OXXX-X-X0X-X XC o * S.C.tX|.=X;X|.%X.X}.OX|.:XXX;X}.+XF ;XXX X.XXX|.#X$X] 3 #.AXDXjX X|. X}.oXXX:XOX8X}.OX.X|.OXoXXX#X|. XS ",
"R L |.|.XXXX-X#X&XA o * S.J.aX}.}.}.J }.L F |.|.=X|.%XH U D |.}.F }.|.#X@XJ R 3 +.J.KXaX}.%X%X}..X|.|.|..XJ }.}.|.|.=X|.|. X}.A ",
"^ Q ~ %X%X%X#X*X&Xu @ X.G.C.tX@X%X#XJ L ~ J $X}.#X}.<XB [ B $XL D $X@X*X*XW R 2 +.J.JXaX$X$X,X$X@X.XW $XL $X X*X@X%X%X|.L W G u ",
"j u S S H Y H Y T 7 o ,.G.c.;.Z [ ~ K Q E N W Q [ H ] t / q Q E N / H @X! Y h O = D.FX;.Y H S Z Q ~ E [ Z } Q | H W ! Q S S P p ",
"  X 2 3 3 3 3 3 7 i   , R.e.-.t t q 3 e w 5 r r T r 3 2 6 2 r r 5 5 q Y T r +   > 0.P.y.T t u g h h h h w 7 r r q t t r w 9 i o ",
"z j l b b b n c g n z ,.M.J.B.) t t t c ^ c t.t.' c g y 9 j g j l +.) _ } ) =.z 5.D.P.B.;.T c c -.t.f.-.-.j c g h ) ' ^ b v o.* ",
"'.A.V.t.gX .i.vXhXpX .p.t.l.g.sXu.} bXhXvXgXMXVXmXhXvX:.;.s.NXZ.D.`.A.d.bX4XbX .A.f.JXs.GX:.vXhXZXJXJXFXFXNXgXa.ZXkXCXsXZXf.6.R.",
"y.l. .pXpX4X| yXyX4X[ 4X| 4X....:.] iX3X4X1X$.' wX..iX2X..} u.1.5.`.B.hXiX<XkX1XtXdX:.cXtXtX,XeX4XpXpXi.;.u...[ 1X+XrX+XpXu.O.0.",
"f.gX] ,X$X&X X3X,X*XJ ,XL $XF Q | H &X}.$X[ U V [ W *X&X[ Q / 5 ,.`.B.bX,XOX<XL Z | C tXH 2XH 1XD L ~ W Y Q K L  X X.X XL ] + < ",
"BXjX[ D $XF }.}.}.|.J #XJ }.F L $XH #X}.#X$XU B ~ J #XJ W H Z 3 <.M.x.vXJ #XJ F B Q B W F ~ L ,XF L J ~ H W L }.|..X|.%XF Q X : ",
"d.5X~ F 7X}.|.|.|.@X|.*X|.@X}.#X$XJ *X@X XJ L B 3X|.=X|.@XJ K 0 k 1.x.tXW |.}.J L W F L  XJ F  XJ #X@X#XF #X}.%X}..X}.;XJ :.2 ,.",
"x.jXH ~ $X%X}.#X|.|.|.%XJ @XJ $XW J *X|.J  X~ D #X}.#X|.&XJ K 0 j <.NX:.,X X}. XL ,XF %XF #XD L D  XJ $XD <X X.X}.}.J &XH } 2 *.",
"nXhXK Q J $XF 3X XW H $XF W J ~ W Z &XH H Q [ F W @X%XW $XK K 3 m 2.HX:.~ W D K D K B &XF &XB [ N Q H &XD ,XL L  XU J ~ B ) X & ",
"y.u./ N ..B S Z [ K S [ K } K | E t _ t t A / q K H [ H / A R 4 @ ,.].s.A S N ] V I B U K I q s e ^ A | B [ S K I K E / R M + , ",
"'.t.5 5 w 0 u e e 0 e 3 3 2 w 5 X . + + o 4 X 3 w 3 3 3 3 X X @ = D.'.<.x 5 5 5 5 5 3 0 w a + i o + 2 3 0 3 3 w 3 2 2 X X . # < ",
"c.y.x b ( ^ ` ^ s s c b p.#.( a l @ o.& $ O.4 5 2 3 y b M a i @ = F.q.z.j #.x b d d s a d v z 2.,.6.x s ' ( s 5 w a x M n z * < ",
"v.BXV.lXnXxXZXgXmXlXmXZXKXJXGXV.A.z.N.M.H.A.g.p.} i.d.NXNXnXf.f.v.Z.A.f.cXxXxXx.zXzXzXdXlXA.P.[.e.'.s.i.zXhXwX{ N u ) d.A.A.n.G.",
"t.dXpXdXfXtXuXtX..| tX..pX| tX:.d.=.m.I.J.HXdXfXaXfXtXdXdXdX:.dXu.;.:.} bX:.uXuX..aX5XaX} s.1.P.w.].cXuXuXiXjX5X| | ;.;.:.d.s.z.",
") Q Z [ [ H J H ~ ~ 2XG W Z ~ Q _ 7 v B.V.d.Q *X*X*XJ W H W H ~ H 2XZ *XW @X! ! D $XD 3XN _ 6 =.q.HXcX| W }. XL yX&X! ! ! Y T g ",
";.~ D $X&XF J J J F L D W F J H ] 3 m C.V.d.W &X@X%XJ $XF &X}. XF 3X X*X*XW ~  XF  XJ 3XC _ f <.P.[.uXW }.}.}.F |.W W W W W H R ",
"/ [ D L  XF  XJ L F J F ,XJ L H Z 3 +.h.k.a.H J J  XD #XF <XF }.F  X@XJ 3XB [ D F F F L Z g O & P.'.:.@X}.|.|.|.%X@X&X$X$XJ F A ",
"A L F F F F  XD  XJ  XD F D  XK e 2 +.h.p.a.U F J ,XF +XD ,XL ~ D 6XF #XL J L B +XG L B ] 5 @ z m.].pX&X}.F |..X|.|.J F J F L I ",
"q +XG U D J L F +XF  XF  XF  XG ( X +.j.nXsXB 2XL F J J F D D G D $XD L L H $XF F L B U q s 2 j Z.Z.dXY  X}..X|.#X|.J D D F L / ",
"u [ G U D L ~ H G D L B ! H L V c X l z.xXdXN K K Z G D H B B S B ~ Z ~ W B ,XH F [ B } e a 4 M <.z.s.Z ~ L J D %X}.F D N B B A ",
"x / e V N A T N Z A S A _ T E u x O <.n.BXg.N A / S K S S A Z E q / A R R t } E q / q c 5 p O k w.N.v.u q A S B [ Q / A s P A y ",
"O j X 4 X 2 6 2 7 6 f 6 f f 6 6 O   : q.N.y.8 4 2 3 5 0 3 2 2 9 6 9 X + f O f 7 6 7 2 f   #   ; L.`.9.O X 2 5 5 3 3 X X X O 8 O ",
"; ,.* ,.: : 8.8.: : *.*.8.8.: : > ; 1 L.!.R.8.< = z *.*.= = *.>.>., % < >., : $ & *.# % ; > - - K.W.L., : , >.& & % # # = = , , ",
"1 Y.0.Y.1 1 L.L.^.Y.T.^.^.^.L.~./.~.~.(.).)._.(.R.R.R.E.E.T.R.!.E.T.T.Y.E.Y.L.1 0.0.1 0.K.L.U.U.U.~.~.~.D.W.Y.T.R.T.D.U.T.Y.T.E.",
")._.W._./.^./.).^.^.E.).^._.^.^.(.(.~./.(.W.W._.W.Q.Q.(.W.Q.!.!.Q./.(./.(.).~.E.!.!.^.^.{.{.{.{.U.{.~.^.E._.)._._.(././.~.(.!.^."
};
