/* XPM */
static char *d03b477a124e49f9cf65bf1d1163dc74[] = {
/* columns rows colors chars-per-pixel */
"64 64 7 1 ",
"  c #100000",
". c #180000",
"X c #2F1002",
"o c #3F2003",
"O c #6F3015",
"+ c #9F6014",
"@ c #CF8F55",
/* pixels */
"OO+++@@@O++@@+ooX.XXXXoO+++@@@+@OO+++@@@O++@@+ooX..XXXooO++@@@+@",
"OOOOOOOOOOOOOO+@o.oooooOOOOOOOOOOOOOOOOOOOOOOO+@o.XoooooooOOOOOO",
"OOOOOOOOOOOOOOOO@XoooooooOOOOOOOOOOOOOOOOOOOOOOO@.oooooooooooooo",
"OOOOOOOOOOOOOOOO@.ooooooooOOOOOOOOOOOOOOOOOOOOOO+.oooooooooooooo",
"OOOOOOOOOOOOOOOOOXoooooooooOOOOOOOOOOOOOOOOOOOOO+ooooooooooooooo",
"OOOOOOOOOOOOOOOOOXoooooooooooOOOOOOOOOOOOOOOOOOO+ooooooooooooooo",
"OOOOOOOOOOOOOOOO+.ooooooooooOOOOOOOOOOOOOOOOOOOO@Xoooooooooooooo",
"OOOOOOOOOOOOOOOO+XoooOOooooooOOOOOOOOOOOOOOOOOOO@ooooooooooooooo",
"OOOOOOOOOOOOOOOo+.oooOOOooooOOOOOOOOOOOOOOOOOOOO@XoooOOooooooooo",
"OOOOOOOOOOOOOOOoO.oooOOOoooOOOOOOOOOOOOOOOOOOOOO+XoooOOooooooooo",
"OOOOOOOOOOOOOOOOO.oooOOOoooOOOOOOOOOOOOOOOOOOOOO+.oooOOooooooooo",
"OOOOOOOOOOOOOOOOOXoooooooooOOOOOOOOOOOOOOOOOOOOO+Xoooooooooooooo",
"OOOOOOOOOOOOOOOOo.ooooooooOOOOOOOOOOOOOOOOOOOOOOO.oooooooooooooo",
"OOOOOOOOOOOOOOOOo.XoooooooOOOOoooooOOOOOOOOOOOOOo.Xooooooooooooo",
"OOOOOOOOOOOOOOooX..XoOOOooOOOOOOOooOOOOOOOOOOOooX .Xoooooooooooo",
"..XXo.oooXXoXXX...  .ooOoXX...... XXo.oooXXX.X.     .XXooXX..   ",
"XoOOOO+++O+++@@@@+++@@@+OO++@oX.XoooOoOOOoOOO+++++OO@+@++O+++X. ",
"oOOOOOOOOOOOOOOOOOOOOOOOooooo+o.oOoOOoooooooooooooooOOOOOOoooOX ",
"OOOOOOOOOOOOOOOOOOOOOOOOOOoooo+XOOoOOoooooooooooooooOOOOOOoooo@X",
"OOOOOOOOOOOOOOOOOOOOOOOOOOoooO@XOOoOooooooooooooooooOoOOOooooo@X",
"OOOOOOOOOOOOOOOOOOOOOOOOOOoooO+oOooooooooooooooooooooOooooooooOo",
"OOOOOOOOOOOOOOOOOOOOOOOOOOOOooOooooooooooOOOOOoooOOOOOOoooooOOOX",
"oOOOOOOOOOOOOOOOOOOOOOOOOOOOoo+XXooooooooOOOOOOooOOOOOOooooOOO@o",
"oOOOOOOOOOOOOOOOOOOOOOOOOOOOOo+oXoooOOOooOOOOOOoOOOOOOOooooOOO@O",
"oOOOOOOOOOOOOOOOOOOOOOOOOOOOOo+.XoooOOOooOOOOOooOOOOOOOooooOOO@X",
"OOOOOOOOOOOOOOOOoOOOOOOOOOOOooOXooooOOOOOOOOOoOOOOOOooooooooOO+o",
"OOOOOOOOOOOOOOOOOooooooooOOOOo+oooooooOOOOOOOoOOOoooOOOoooooooOX",
"OOOOOOOOOOOOOOOOOoooooooooooOOOXOOoooOOOOOooooOOOoooOOOoooooooo.",
"oOOOOOOOOOOOOOOOOOooooooooooOOoXoOOOooOOOoooooOOooooOOOooOOOooX.",
"oOOOOOOOOOOOOOOOOOooooooooooOOo.oOOOOOOooooOOOOoooooOOOOOOOOooX ",
"XoOOOOOOOOOOOOOOOOoooooooooOOoX.XoOOOOOooooOOOooOOOOooOOOOOOoX. ",
".Xo.XXXo..oXX....oXX..   X.X.....Xo.XXXo  XXX.  .oooX....oX.    ",
"OO+++@@@O++@@+ooX..XXXooOO+@@@+@OO+++@@@OOO++OXXX.XooXOO++O++@O+",
"OOOOOOOOOOOOOO+@o.XoooooooOOOOOOOOOOOOOOOOooooO+o.oOooOOOooooooo",
"OOOOOOOOOOOOOOOO@XoooooooooOOOOOOOOOOOOOOOOOoooo+XOOOooooOOOOoOO",
"OOOOOOOOOOOOOOOO@XoooooooooOOOOOOOOOOOOOOOOOOOOo+XOOOOoOOOOOOOOO",
"OOOOOOOOOOOOOOOO+oooooooooooOOOOOOOOOOOOOOOOOOOO+oOOOOOOOOOOOOOO",
"OOOOOOOOOOOOOOOO+XooooooooooOOOOOOOOOOOOOOOOOOOO+oOOOOOOOOOOOOOO",
"OOOOOOOOOOOOOOOO+.oooooooooOOOOOOOOOOOOOOOOOOOOO@XOOOOOOOOOOOOOO",
"OOOOOOOOOOOOOOOO+XoooooooooOOOOOOOOOOOOOOOOOOOOO@oOOOOOOOOOOOOOO",
"OOOOOOOOOOOOOOOO+.oooooooooOOOOOOOOOOOOOOOOOOOOO@XOOOOOOOOOOOOOO",
"OOOOOOOOOOOOOOooO.oooooooooOOOOOOOOOOOOOOOOOOOOO+XOOOOOOOOOOOOOO",
"OOOoOOOoooooOOOOO.oooooooooOOOOOOOOOOOOOOOOOOOOO+XOOOOOOOOOOOOOO",
"OoooOOOOOooOOOOOOXoooooooooOOOOOOOOOOOOOOOOOOOOO+oOOOOOOOOOOOOOO",
"OOOOOoOOOooOOOOOo.oooooooooOOOOOOOOOOOOOOOOOOOOOOXOOOOOOOOOOOOOO",
"oOOOOooOOooOOOOOX.XoooooooooOOOOOOOOOOOOOOOOOOOOoXoOOOOOOOOOOOOO",
"oOOOOooooooOOOoX. .XoooooooooOOOOOOOOOOOOOOOOOooX.XoOOOOOOOOOOOO",
" .XXo XXX..X..X     XooOoXX..  ...XXo.oooXXoXXX.....XooOOooXX...",
".oOoooOOOoOOO+++@+OO@@@++O+++X. XoOOOO+++O+++@@@@@++@@@+++@@@oX ",
"oOOooooooooooooOOOooOOOOOooooOX oOOOOOOOOOOOOOOOOOOOOOOOOOOOO+o.",
"OOOOoooooooOOooOOOOOOOOOOOoooo+.OOOOOOOOOOOOOOOOOOOOOOOOOOOOOO@X",
"OOOOoooOOOOOOooOOOOOOOOOOOoooo+.ooOOOOOOOOOOOOOOOOOOOOOOOOOOOO@X",
"OOOOooOOOOOOOooooOOOOOOOOooOOoOXooooOOOOOOOOOOOOOOOOOOOOOOOOOO+o",
"OOOOooOOOOOOooooooooOOOoooOOOooXooooOOOOOOOOOOOOOOOOOOOOOOOOOOOo",
"XooooooOOOOoooooooOoooooooOOOo+XXoooOOOOOOOOOOOOOOOOOOOOOOOOOO@X",
"XooooooOOOOOooooooOOOOooooOOOo+oXoooOOOOOOOOOOOOOOOOOOOOOOOOOO+o",
"XoooooOOOOOOooooooOOOOOOOOOOOo+.XoooOOOOOOOOOOOOOOOOOOOOOOOOOo@X",
"ooooooOOOOOOooooooOOOOOOOOOoooOXoooOOOOOOOOOOOOOOOOOOOOOOOOOoO+o",
"oooooooOOOooooooooooOOOOOOOoooOXoOOOOOOOOOOOOOOOOOOOOOOOOOOOoO+o",
"OOOOOOOOOOOooOOOOoooooOOoooooooXOOOOOOOOOOOOOOOOOOOOOOOOOOOOooOX",
"oOOOOOOOOOOoOOOOoooooOOOooooooXXoOOOOOOOOOOOOOOOOOOOOOOOOOOOooo.",
"oOOOOOOOOOOOOOOOOOoooOOOooooooo.oOOOOOOOOOOOOOOOOOOOOOOOOOOOOOX ",
"XoOOOOOOOOOOOOOOOOoooooooooooXX.XoOOOOOOOOOOOOOOOOOOOOOOOOOOOoX ",
".Xo.XXXo..oXX....ooX..   X..   ..Xo.XXXo..oXX....oooXX...oXX..  "
};
